<?xml version="1.0" encoding="iso-8859-1"?>
<!-- Generator: Adobe Illustrator 19.0.0, SVG Export Plug-In . SVG Version: 6.00 Build 0)  -->
<svg xmlns="http://www.w3.org/2000/svg" xmlns:xlink="http://www.w3.org/1999/xlink" version="1.1" id="Layer_1" x="0px" y="0px" viewBox="0 0 496 496" style="enable-background:new 0 0 496 496;" xml:space="preserve">
<g>
	<rect x="64" y="224" style="fill:#fe2911;" width="160" height="136"/>
	<path style="fill:#fe2911;" d="M496,496H288V272h208V496z"/>
</g>
<g>
	<rect x="80" y="120" style="fill:#333333;" width="128" height="16"/>
	<rect x="80" y="152" style="fill:#333333;" width="128" height="16"/>
	<rect x="192" y="184" style="fill:#333333;" width="16" height="16"/>
	<rect x="80" y="184" style="fill:#333333;" width="96" height="16"/>
	<polygon style="fill:#333333;" points="192,344 152,344 152,328 176,328 176,299.056 190.112,292 176,284.944 176,256 152,256    152,240 192,240 192,275.056 208,283.056 208,300.944 192,308.944  "/>
	<polygon style="fill:#333333;" points="136,344 96,344 96,308.944 80,300.944 80,283.056 96,275.056 96,240 136,240 136,256    112,256 112,284.944 97.888,292 112,299.056 112,328 136,328  "/>
	<path style="fill:#333333;" d="M472.792,0H199.208C186.416,0,176,10.416,176,23.208V88H0v304h240V208h24v32h-16v16h16h144h16v-16   h-16v-32h64.792c12.8,0,23.208-10.416,23.208-23.208V23.208C496,10.416,485.584,0,472.792,0z M192,23.208   c0-3.976,3.232-7.208,7.208-7.208h273.576c3.984,0,7.216,3.232,7.216,7.208V144H240V88h-48V23.208z M48,376H16v-32h32V376z M48,328   H16v-32h32V328z M48,280H16v-32h32V280z M48,232H16v-32h32V232z M48,184H16v-32h32V184z M48,136H16v-32h32V136z M224,376H64V104   h160V376z M392,240H280v-32h112V240z M472.792,192H408H264h-24v-32h240v24.792C480,188.768,476.768,192,472.792,192z"/>
	<rect x="336" y="288" style="fill:#333333;" width="144" height="16"/>
	<rect x="304" y="288" style="fill:#333333;" width="16" height="16"/>
	<rect x="304" y="320" style="fill:#333333;" width="176" height="16"/>
	<rect x="304" y="352" style="fill:#333333;" width="176" height="16"/>
	<rect x="464" y="384" style="fill:#333333;" width="16" height="16"/>
	<rect x="304" y="384" style="fill:#333333;" width="144" height="16"/>
	<rect x="304" y="464" style="fill:#333333;" width="16" height="16"/>
	<rect x="336" y="464" style="fill:#333333;" width="16" height="16"/>
	<rect x="368" y="464" style="fill:#333333;" width="16" height="16"/>
	<rect x="400" y="464" style="fill:#333333;" width="16" height="16"/>
	<rect x="432" y="464" style="fill:#333333;" width="16" height="16"/>
	<rect x="464" y="464" style="fill:#333333;" width="16" height="16"/>
	<rect x="304" y="416" style="fill:#333333;" width="176" height="16"/>
</g>
<g>
</g>
<g>
</g>
<g>
</g>
<g>
</g>
<g>
</g>
<g>
</g>
<g>
</g>
<g>
</g>
<g>
</g>
<g>
</g>
<g>
</g>
<g>
</g>
<g>
</g>
<g>
</g>
<g>
</g>
</svg>
