<?xml version="1.0" encoding="iso-8859-1"?>
<!-- Generator: Adobe Illustrator 19.0.0, SVG Export Plug-In . SVG Version: 6.00 Build 0)  -->
<svg xmlns="http://www.w3.org/2000/svg" xmlns:xlink="http://www.w3.org/1999/xlink" version="1.1" id="Layer_1" x="0px" y="0px" viewBox="0 0 496 496" style="enable-background:new 0 0 496 496;" xml:space="preserve">
<g>
	
		<rect x="162.11" y="280.006" transform="matrix(-0.9345 0.3559 -0.3559 -0.9345 589.996 467.4661)" style="fill:#333333;" width="179.772" height="16"/>
	<path style="fill:#333333;" d="M56,256H40V144c0-22.056,17.944-40,40-40h16v16H80c-13.232,0-24,10.768-24,24V256z"/>
	<path style="fill:#333333;" d="M416,104H256v8l-4.8,6.4l96,72l9.6-12.8L280,120h136c13.232,0,24,10.768,24,24v24h16v-24   C456,121.944,438.056,104,416,104z"/>
	<path style="fill:#333333;" d="M440,312v72H136v16h304v8c0,13.232-10.768,24-24,24h-32H112H80c-13.232,0-24-10.768-24-24v-8H40v8   c0,22.056,17.944,40,40,40h32v32H80v16h32h272h32v-16h-32v-32h32c22.056,0,40-17.944,40-40v-96H440z M368,480H128v-32h240V480z"/>
</g>
<g>
	<path style="fill:#fe2911;" d="M88,416c-48.52,0-88-39.48-88-88s39.48-88,88-88s88,39.48,88,88S136.52,416,88,416z"/>
	<path style="fill:#fe2911;" d="M176,176c-48.52,0-88-39.48-88-88s39.48-88,88-88s88,39.48,88,88S224.52,176,176,176z"/>
	<path style="fill:#fe2911;" d="M408,328c-48.52,0-88-39.48-88-88s39.48-88,88-88s88,39.48,88,88S456.52,328,408,328z"/>
</g>
<g>
	<rect x="128" y="48" style="fill:#333333;" width="96" height="16"/>
	<rect x="128" y="80" style="fill:#333333;" width="96" height="16"/>
	<rect x="208" y="112" style="fill:#333333;" width="16" height="16"/>
	<rect x="360" y="200" style="fill:#333333;" width="96" height="16"/>
	<rect x="360" y="232" style="fill:#333333;" width="96" height="16"/>
	<rect x="440" y="264" style="fill:#333333;" width="16" height="16"/>
	<rect x="128" y="112" style="fill:#333333;" width="64" height="16"/>
	<rect x="360" y="264" style="fill:#333333;" width="64" height="16"/>
	<rect x="40" y="288" style="fill:#333333;" width="96" height="16"/>
	<rect x="40" y="320" style="fill:#333333;" width="96" height="16"/>
	<rect x="120" y="352" style="fill:#333333;" width="16" height="16"/>
	<rect x="40" y="352" style="fill:#333333;" width="64" height="16"/>
</g>
<g>
</g>
<g>
</g>
<g>
</g>
<g>
</g>
<g>
</g>
<g>
</g>
<g>
</g>
<g>
</g>
<g>
</g>
<g>
</g>
<g>
</g>
<g>
</g>
<g>
</g>
<g>
</g>
<g>
</g>
</svg>
