<?xml version="1.0" encoding="iso-8859-1"?>
<!-- Generator: Adobe Illustrator 19.0.0, SVG Export Plug-In . SVG Version: 6.00 Build 0)  -->
<svg xmlns="http://www.w3.org/2000/svg" xmlns:xlink="http://www.w3.org/1999/xlink" version="1.1" id="Layer_1" x="0px" y="0px" viewBox="0 0 496 496" style="enable-background:new 0 0 496 496;" xml:space="preserve">
<path style="fill:#333333;" d="M0,240v8c0,136.744,111.256,248,248,248s248-111.256,248-248v-8H0z M240,336.096  c-38.632,0.56-69.728,5.128-94.512,11.528c-9.792-26.336-16.4-56.816-17.296-91.624H240V336.096z M240,352.096v120.952  c-20.352-14.832-62.12-50.688-88.496-110.448C174.648,356.8,203.76,352.64,240,352.096z M256,352.096  c36.16,0.552,65.264,4.768,88.448,10.624c-26.384,59.688-68.112,95.504-88.448,110.328V352.096z M256,336.096V256h111.808  c-0.896,34.816-7.504,65.288-17.296,91.624C325.728,341.224,294.632,336.664,256,336.096z M112.192,256  c0.888,36.424,7.712,68.384,17.88,96.064c-37.232,11.944-57.384,27.64-66.48,36.496C35.28,351.504,17.832,305.728,16.136,256  H112.192z M73.784,400.976c6.84-6.944,25.232-22.32,62.224-34.008c24.088,55.664,60.896,92.112,84.744,111.384  C162.432,471.48,110.672,442.936,73.784,400.976z M275.256,478.344c23.824-19.248,60.584-55.648,84.672-111.232  c36.736,11.68,55.296,26.984,62.248,33.904C385.288,442.952,333.552,471.488,275.256,478.344z M432.408,388.56  c-9.096-8.864-29.248-24.552-66.48-36.496c10.176-27.68,16.992-59.64,17.88-96.064h96.056  C478.168,305.728,460.72,351.504,432.408,388.56z"/>
<rect x="32" style="fill:#fe2911;" width="432" height="240"/>
<g>
	<rect x="48" y="16" style="fill:#333333;" width="16" height="16"/>
	<rect x="80" y="16" style="fill:#333333;" width="16" height="16"/>
	<rect x="112" y="16" style="fill:#333333;" width="16" height="16"/>
	<rect x="32" y="48" style="fill:#333333;" width="432" height="16"/>
	<path style="fill:#333333;" d="M256,216H64V88h192V216z M80,200h160v-96H80V200z"/>
	<polygon style="fill:#333333;" points="113.6,188.8 86,152 113.6,115.2 126.4,124.8 106,152 126.4,179.2  "/>
	<polygon style="fill:#333333;" points="198.4,188.8 185.6,179.2 206,152 185.6,124.8 198.4,115.2 226,152  "/>
	
		<rect x="121.827" y="144.03" transform="matrix(-0.351 0.9364 -0.9364 -0.351 353.1182 59.3131)" style="fill:#333333;" width="68.354" height="16"/>
	<rect x="272" y="88" style="fill:#333333;" width="160" height="16"/>
	<rect x="416" y="120" style="fill:#333333;" width="16" height="16"/>
	<rect x="272" y="120" style="fill:#333333;" width="128" height="16"/>
	<path style="fill:#333333;" d="M304,216c-17.648,0-32-14.352-32-32s14.352-32,32-32s32,14.352,32,32S321.648,216,304,216z M304,168   c-8.824,0-16,7.176-16,16s7.176,16,16,16s16-7.176,16-16S312.824,168,304,168z"/>
	<path style="fill:#333333;" d="M400,216c-17.648,0-32-14.352-32-32s14.352-32,32-32s32,14.352,32,32S417.648,216,400,216z M400,168   c-8.824,0-16,7.176-16,16s7.176,16,16,16s16-7.176,16-16S408.824,168,400,168z"/>
</g>
<g>
</g>
<g>
</g>
<g>
</g>
<g>
</g>
<g>
</g>
<g>
</g>
<g>
</g>
<g>
</g>
<g>
</g>
<g>
</g>
<g>
</g>
<g>
</g>
<g>
</g>
<g>
</g>
<g>
</g>
</svg>
