<?xml version="1.0" encoding="iso-8859-1"?>
<!-- Generator: Adobe Illustrator 19.0.0, SVG Export Plug-In . SVG Version: 6.00 Build 0)  -->
<svg xmlns="http://www.w3.org/2000/svg" xmlns:xlink="http://www.w3.org/1999/xlink" version="1.1" id="Layer_1" x="0px" y="0px" viewBox="0 0 496 496" style="enable-background:new 0 0 496 496;" xml:space="preserve">
<g>
	<rect x="32" y="320" style="fill:#333333;" width="136" height="16"/>
	<rect x="64" y="288" style="fill:#333333;" width="104" height="16"/>
	<rect x="32" y="288" style="fill:#333333;" width="16" height="16"/>
	<rect x="32" y="256" style="fill:#333333;" width="144" height="16"/>
	<path style="fill:#333333;" d="M0,0v368h168v-16H16V80h432v152h16V0H0z M16,64V16h432v48H16z"/>
	<rect x="32" y="32" style="fill:#333333;" width="16" height="16"/>
	<rect x="64" y="32" style="fill:#333333;" width="16" height="16"/>
	<rect x="96" y="32" style="fill:#333333;" width="16" height="16"/>
	<polygon style="fill:#333333;" points="32,240 200,240 200,224 48,224 48,112 208,112 208,216 224,216 224,96 32,96  "/>
	<rect x="240" y="96" style="fill:#333333;" width="192" height="16"/>
	<rect x="416" y="128" style="fill:#333333;" width="16" height="16"/>
	<rect x="240" y="128" style="fill:#333333;" width="160" height="16"/>
</g>
<circle style="fill:#fe2911;" cx="328" cy="328" r="168"/>
<g>
	<path style="fill:#333333;" d="M328,391.968c-16.392,0-32.784-6.24-45.256-18.712l0,0c-24.952-24.952-24.952-65.552,0-90.504   s65.56-24.952,90.512,0s24.952,65.552,0,90.504C360.784,385.728,344.392,391.968,328,391.968z M294.056,361.944   c18.72,18.712,49.168,18.712,67.888,0c18.712-18.712,18.712-49.168,0-67.88c-18.728-18.72-49.176-18.712-67.888,0   S275.344,343.224,294.056,361.944L294.056,361.944z"/>
	<path style="fill:#333333;" d="M328,360c-8.544,0-16.584-3.336-22.624-9.376C299.328,344.584,296,336.544,296,328   s3.328-16.584,9.376-22.624c6.04-6.04,14.08-9.376,22.624-9.376s16.584,3.336,22.624,9.376c6.048,6.04,9.376,14.08,9.376,22.624   s-3.328,16.584-9.376,22.624C344.584,356.664,336.544,360,328,360z M328,312c-4.272,0-8.288,1.664-11.312,4.688   S312,323.728,312,328s1.664,8.288,4.688,11.312l0,0c6.048,6.048,16.576,6.048,22.624,0c3.024-3.024,4.688-7.04,4.688-11.312   s-1.664-8.288-4.688-11.312S332.272,312,328,312z"/>
	<path style="fill:#333333;" d="M211.784,298l-15.504-3.992C211.744,233.952,265.904,192,328,192v16   C273.208,208,225.416,245.008,211.784,298z"/>
	<path style="fill:#333333;" d="M208,328h-16c0-5.688,0.352-11.408,1.056-17l15.872,1.984C208.312,317.92,208,322.968,208,328z"/>
</g>
<g>
</g>
<g>
</g>
<g>
</g>
<g>
</g>
<g>
</g>
<g>
</g>
<g>
</g>
<g>
</g>
<g>
</g>
<g>
</g>
<g>
</g>
<g>
</g>
<g>
</g>
<g>
</g>
<g>
</g>
</svg>
