<?xml version="1.0" encoding="iso-8859-1"?>
<!-- Generator: Adobe Illustrator 19.0.0, SVG Export Plug-In . SVG Version: 6.00 Build 0)  -->
<svg xmlns="http://www.w3.org/2000/svg" xmlns:xlink="http://www.w3.org/1999/xlink" version="1.1" id="Layer_1" x="0px" y="0px" viewBox="0 0 496 496" style="enable-background:new 0 0 496 496;" xml:space="preserve">
<g>
	<path style="fill:#fe2911;" d="M424,160c-39.704,0-72-32.296-72-72s32.296-72,72-72s72,32.296,72,72S463.704,160,424,160z"/>
	<path style="fill:#fe2911;" d="M424,480c-39.704,0-72-32.296-72-72s32.296-72,72-72s72,32.296,72,72S463.704,480,424,480z"/>
	<path style="fill:#fe2911;" d="M424,320c-39.704,0-72-32.296-72-72s32.296-72,72-72s72,32.296,72,72S463.704,320,424,320z"/>
</g>
<g>
	<rect x="384" y="64" style="fill:#333333;" width="80" height="16"/>
	<rect x="448" y="96" style="fill:#333333;" width="16" height="16"/>
	<rect x="384" y="96" style="fill:#333333;" width="48" height="16"/>
	<rect x="384" y="224" style="fill:#333333;" width="80" height="16"/>
	<rect x="448" y="256" style="fill:#333333;" width="16" height="16"/>
	<rect x="384" y="256" style="fill:#333333;" width="48" height="16"/>
	<rect x="384" y="384" style="fill:#333333;" width="80" height="16"/>
	<rect x="448" y="416" style="fill:#333333;" width="16" height="16"/>
	<rect x="384" y="416" style="fill:#333333;" width="48" height="16"/>
	<path style="fill:#333333;" d="M368,96V80h-48V0H0v496h320v-80h48v-16h-48V256h48v-16h-48V96H368z M304,480H16V80h288V480z M304,64   H16V16h288V64z"/>
	<rect x="32" y="32" style="fill:#333333;" width="16" height="16"/>
	<rect x="64" y="32" style="fill:#333333;" width="16" height="16"/>
	<rect x="96" y="32" style="fill:#333333;" width="16" height="16"/>
</g>
<rect x="32" y="96" style="fill:#fe2911;" width="256" height="208"/>
<g>
	<rect x="32" y="320" style="fill:#333333;" width="256" height="16"/>
	<rect x="64" y="352" style="fill:#333333;" width="224" height="16"/>
	<rect x="32" y="352" style="fill:#333333;" width="16" height="16"/>
	<rect x="32" y="384" style="fill:#333333;" width="256" height="16"/>
	<rect x="32" y="416" style="fill:#333333;" width="256" height="16"/>
	<rect x="272" y="448" style="fill:#333333;" width="16" height="16"/>
	<rect x="32" y="448" style="fill:#333333;" width="224" height="16"/>
	<polygon style="fill:#333333;" points="105.496,260.648 62.168,200 105.496,139.352 118.504,148.648 81.832,200 118.504,251.352     "/>
	<polygon style="fill:#333333;" points="214.504,260.648 201.496,251.352 238.168,200 201.496,148.648 214.504,139.352 257.832,200     "/>
	
		<rect x="99.076" y="191.964" transform="matrix(-0.3941 0.9191 -0.9191 -0.3941 406.8434 131.7107)" style="fill:#333333;" width="121.86" height="16"/>
</g>
<g>
</g>
<g>
</g>
<g>
</g>
<g>
</g>
<g>
</g>
<g>
</g>
<g>
</g>
<g>
</g>
<g>
</g>
<g>
</g>
<g>
</g>
<g>
</g>
<g>
</g>
<g>
</g>
<g>
</g>
</svg>
