<?xml version="1.0" encoding="iso-8859-1"?>
<!-- Generator: Adobe Illustrator 19.0.0, SVG Export Plug-In . SVG Version: 6.00 Build 0)  -->
<svg xmlns="http://www.w3.org/2000/svg" xmlns:xlink="http://www.w3.org/1999/xlink" version="1.1" id="Layer_1" x="0px" y="0px" viewBox="0 0 496 496" style="enable-background:new 0 0 496 496;" xml:space="preserve">
<g>
	<rect x="312" y="336" style="fill:#333333;" width="16" height="16"/>
	<path style="fill:#333333;" d="M392,16V0H108.688L0,108.688V496h392v-16H16V120h16v152h320v-16H48V120h72V48h200V32H120V16H392z    M27.312,104L104,27.312V104H27.312z"/>
	<rect x="32" y="304" style="fill:#333333;" width="296" height="16"/>
	<rect x="32" y="336" style="fill:#333333;" width="264" height="16"/>
	<rect x="32" y="368" style="fill:#333333;" width="296" height="16"/>
	<rect x="32" y="400" style="fill:#333333;" width="296" height="16"/>
	<rect x="32" y="432" style="fill:#333333;" width="296" height="16"/>
</g>
<path style="fill:#fe2911;" d="M403.312,496h-22.624L344,459.312V196.168c-34.184-17.832-56-53.464-56-92.168  C288,46.656,334.656,0,392,0s104,46.656,104,104c0,38.712-21.816,74.336-56,92.168V280l-32,16v16l32,16v24l-32,16v16l32,16v59.312  L403.312,496z"/>
<path style="fill:#333333;" d="M392,160c-30.872,0-56-25.12-56-56s25.128-56,56-56s56,25.12,56,56S422.872,160,392,160z M392,64  c-22.056,0-40,17.944-40,40s17.944,40,40,40s40-17.944,40-40S414.056,64,392,64z"/>
<g>
</g>
<g>
</g>
<g>
</g>
<g>
</g>
<g>
</g>
<g>
</g>
<g>
</g>
<g>
</g>
<g>
</g>
<g>
</g>
<g>
</g>
<g>
</g>
<g>
</g>
<g>
</g>
<g>
</g>
</svg>
