<?xml version="1.0" encoding="iso-8859-1"?>
<!-- Generator: Adobe Illustrator 19.0.0, SVG Export Plug-In . SVG Version: 6.00 Build 0)  -->
<svg xmlns="http://www.w3.org/2000/svg" xmlns:xlink="http://www.w3.org/1999/xlink" version="1.1" id="Layer_1" x="0px" y="0px" viewBox="0 0 496 496" style="enable-background:new 0 0 496 496;" xml:space="preserve">
<path style="fill:#333333;" d="M0,0v384h120v-16H16V80h464v288H368v16h128V0H0z M16,64V16h464v48H16z"/>
<path style="fill:#fe2911;" d="M312,496H184v-56h-14c-31.984,0-58-26.016-58-58v-23.448l-21.84-4.368  C79.64,352.096,72,342.776,72,332.04c0-4.096,1.112-8.112,3.216-11.616L104,272.448V240c0-77.928,63.368-142.512,141.248-143.976  c0.872-0.016,1.76-0.024,2.64-0.024c36.952,0,72.104,14.568,99.24,41.208C375.648,165.192,392,203.96,392,243.56V304  c0,54.616-31.224,104.648-80,128.888V496z"/>
<g>
	<rect x="32" y="32" style="fill:#333333;" width="16" height="16"/>
	<rect x="64" y="32" style="fill:#333333;" width="16" height="16"/>
	<rect x="96" y="32" style="fill:#333333;" width="16" height="16"/>
	<path style="fill:#333333;" d="M280,152h-64c-35.288,0-64,28.712-64,64s28.712,64,64,64h64c35.288,0,64-28.712,64-64   S315.288,152,280,152z M280,264h-64c-26.472,0-48-21.528-48-48s21.528-48,48-48h64c26.472,0,48,21.528,48,48S306.472,264,280,264z"/>
	<polygon style="fill:#333333;" points="209.6,179.2 182,216 209.6,252.8 222.4,243.2 202,216 222.4,188.8  "/>
	<polygon style="fill:#333333;" points="273.6,188.8 294,216 273.6,243.2 286.4,252.8 314,216 286.4,179.2  "/>
	
		<rect x="212.214" y="208.007" transform="matrix(-0.4472 0.8944 -0.8944 -0.4472 552.0947 90.7995)" style="fill:#333333;" width="71.55" height="16"/>
	<rect x="240" y="296" style="fill:#333333;" width="16" height="16"/>
	<rect x="272" y="296" style="fill:#333333;" width="16" height="16"/>
	<rect x="208" y="296" style="fill:#333333;" width="16" height="16"/>
</g>
<g>
</g>
<g>
</g>
<g>
</g>
<g>
</g>
<g>
</g>
<g>
</g>
<g>
</g>
<g>
</g>
<g>
</g>
<g>
</g>
<g>
</g>
<g>
</g>
<g>
</g>
<g>
</g>
<g>
</g>
</svg>
