<?xml version="1.0" encoding="iso-8859-1"?>
<!-- Generator: Adobe Illustrator 19.0.0, SVG Export Plug-In . SVG Version: 6.00 Build 0)  -->
<svg xmlns="http://www.w3.org/2000/svg" xmlns:xlink="http://www.w3.org/1999/xlink" version="1.1" id="Layer_1" x="0px" y="0px" viewBox="0 0 496 496" style="enable-background:new 0 0 496 496;" xml:space="preserve">
<g>
	<path style="fill:#fe2911;" d="M208,496H96V384h112V496z"/>
	<path style="fill:#fe2911;" d="M336,496H224V384h112V496z"/>
	<path style="fill:#fe2911;" d="M336,272H224V160h112V272z"/>
	<path style="fill:#fe2911;" d="M464,496H352V384h112V496z"/>
</g>
<g>
	<path style="fill:#333333;" d="M480,64V32h-16V0H0v384h32v16h32v16h32v-16H80V144h400v256h-16v16h32V64H480z M16,368V16h432v16H32   v336H16z M48,384V48h416v16H64v320H48z M80,128V80h400v48H80z"/>
	<rect x="96" y="96" style="fill:#333333;" width="16" height="16"/>
	<rect x="128" y="96" style="fill:#333333;" width="16" height="16"/>
	<rect x="160" y="96" style="fill:#333333;" width="16" height="16"/>
	<polygon style="fill:#333333;" points="416,384 416,312 288,312 288,272 272,272 272,312 144,312 144,384 160,384 160,328 272,328    272,384 288,384 288,328 400,328 400,384  "/>
	<rect x="208" y="400" style="fill:#333333;" width="16" height="16"/>
	<rect x="336" y="400" style="fill:#333333;" width="16" height="16"/>
	<rect x="296" y="224" style="fill:#333333;" width="16" height="16"/>
	<rect x="256" y="192" style="fill:#333333;" width="16" height="16"/>
	<rect x="128" y="416" style="fill:#333333;" width="16" height="16"/>
	<rect x="160" y="448" style="fill:#333333;" width="16" height="16"/>
	<rect x="256" y="416" style="fill:#333333;" width="16" height="16"/>
	<rect x="288" y="448" style="fill:#333333;" width="16" height="16"/>
	<rect x="384" y="416" style="fill:#333333;" width="16" height="16"/>
	<rect x="416" y="448" style="fill:#333333;" width="16" height="16"/>
</g>
<g>
</g>
<g>
</g>
<g>
</g>
<g>
</g>
<g>
</g>
<g>
</g>
<g>
</g>
<g>
</g>
<g>
</g>
<g>
</g>
<g>
</g>
<g>
</g>
<g>
</g>
<g>
</g>
<g>
</g>
</svg>
