<?xml version="1.0" encoding="iso-8859-1"?>
<!-- Generator: Adobe Illustrator 19.0.0, SVG Export Plug-In . SVG Version: 6.00 Build 0)  -->
<svg xmlns="http://www.w3.org/2000/svg" xmlns:xlink="http://www.w3.org/1999/xlink" version="1.1" id="Layer_1" x="0px" y="0px" viewBox="0 0 496 496" style="enable-background:new 0 0 496 496;" xml:space="preserve">
<path style="fill:#fe2911;" d="M264,264H0V0h264V264z"/>
<g>
	<path style="fill:#333333;" d="M288,80h-8v200H80v8c0,114.696,93.304,208,208,208s208-93.304,208-208S402.696,80,288,80z    M479.8,296c-1.696,41.048-16.336,78.792-39.944,109.288c-7.048-5.68-20.68-15.192-41.2-24.072   c9.544-23.584,16.192-51.84,17.128-85.208H448v-16h-32.208c-0.936-33.368-7.592-61.624-17.128-85.208   c20.52-8.88,34.144-18.4,41.2-24.072c23.608,30.496,38.248,68.24,39.944,109.288H464v16h15.8V296z M377.416,185.832   c-21,7.304-48.128,13.104-81.416,13.944v-99C314.72,110.936,352.88,136.528,377.416,185.832z M296,215.776   c36.032-0.856,65.352-7.176,88.024-15.184c8.88,22.136,14.888,48.424,15.792,79.408H296V215.776z M280,475.224   c-18.72-10.168-56.88-35.752-81.416-85.064c21-7.304,48.128-13.104,81.416-13.944V475.224z M296,376.224   c33.208,0.848,60.352,6.672,81.384,14.008c-24.544,49.264-62.672,74.832-81.384,84.992V376.224z M296,360.224V296h103.808   c-0.896,30.984-6.904,57.272-15.792,79.408C361.352,367.4,332.032,361.08,296,360.224z M429.52,158.456   c-6.208,4.92-18.624,13.504-37.432,21.624c-11.464-23.272-25.448-41.328-38.344-54.648c-10.552-10.904-21.056-19.496-30.4-26.16   C365.024,107.072,401.976,128.384,429.52,158.456z M280,360.224c-36.032,0.856-65.352,7.176-88.024,15.184   c-8.88-22.136-14.888-48.424-15.792-79.408H280V360.224z M160.208,296c0.936,33.368,7.592,61.624,17.128,85.208   c-20.392,8.832-33.992,18.288-41.08,23.984c-23.608-30.496-38.4-68.144-40.088-109.192H160.208z M146.592,417.448   c6.256-4.936,18.648-13.464,37.32-21.536c11.464,23.272,25.448,41.328,38.344,54.648c10.408,10.76,20.768,19.256,30.016,25.88   C210.776,468.584,174.04,447.408,146.592,417.448z M323.352,476.72c9.344-6.664,19.848-15.248,30.4-26.16   c12.88-13.304,26.848-31.336,38.304-54.568c18.76,8.112,31.208,16.664,37.448,21.568   C401.96,447.624,365.016,468.928,323.352,476.72z"/>
	<rect x="16" y="16" style="fill:#333333;" width="16" height="16"/>
	<rect x="48" y="16" style="fill:#333333;" width="16" height="16"/>
	<rect x="80" y="16" style="fill:#333333;" width="16" height="16"/>
	<rect y="48" style="fill:#333333;" width="264" height="16"/>
	<rect x="32" y="128" style="fill:#333333;" width="16" height="64"/>
	<path style="fill:#333333;" d="M176,192v-64h-48v64H176z M144,144h16v32h-16V144z"/>
	<rect x="224" y="128" style="fill:#333333;" width="16" height="64"/>
	<rect x="192" y="128" style="fill:#333333;" width="16" height="64"/>
	<path style="fill:#333333;" d="M112,128H64v64h48V128z M96,176H80v-32h16V176z"/>
</g>
<g>
</g>
<g>
</g>
<g>
</g>
<g>
</g>
<g>
</g>
<g>
</g>
<g>
</g>
<g>
</g>
<g>
</g>
<g>
</g>
<g>
</g>
<g>
</g>
<g>
</g>
<g>
</g>
<g>
</g>
</svg>
