<?xml version="1.0" encoding="iso-8859-1"?>
<!-- Generator: Adobe Illustrator 19.0.0, SVG Export Plug-In . SVG Version: 6.00 Build 0)  -->
<svg xmlns="http://www.w3.org/2000/svg" xmlns:xlink="http://www.w3.org/1999/xlink" version="1.1" id="Layer_1" x="0px" y="0px" viewBox="0 0 496 496" style="enable-background:new 0 0 496 496;" xml:space="preserve">
<g>
	<path style="fill:#fe2911;" d="M240,272H64V128h176V272z"/>
	<path style="fill:#fe2911;" d="M344,464c-48.52,0-88-39.48-88-88s39.48-88,88-88s88,39.48,88,88S392.52,464,344,464z"/>
</g>
<g>
	<path style="fill:#333333;" d="M496,0H0v368h32v128h432V368h32V0z M480,16v48H16V16H480z M448,480H48V112h400V480z M464,352V96H32   v256H16V80h464v272H464z"/>
	<rect x="32" y="32" style="fill:#333333;" width="16" height="16"/>
	<rect x="64" y="32" style="fill:#333333;" width="16" height="16"/>
	<rect x="96" y="32" style="fill:#333333;" width="16" height="16"/>
	<rect x="256" y="128" style="fill:#333333;" width="176" height="16"/>
	<rect x="288" y="160" style="fill:#333333;" width="144" height="16"/>
	<rect x="256" y="160" style="fill:#333333;" width="16" height="16"/>
	<rect x="256" y="192" style="fill:#333333;" width="176" height="16"/>
	<rect x="256" y="224" style="fill:#333333;" width="176" height="16"/>
	<rect x="416" y="256" style="fill:#333333;" width="16" height="16"/>
	<rect x="256" y="256" style="fill:#333333;" width="144" height="16"/>
	<rect x="64" y="288" style="fill:#333333;" width="176" height="16"/>
	<rect x="96" y="320" style="fill:#333333;" width="144" height="16"/>
	<rect x="64" y="320" style="fill:#333333;" width="16" height="16"/>
	<rect x="64" y="352" style="fill:#333333;" width="176" height="16"/>
	<rect x="64" y="384" style="fill:#333333;" width="176" height="16"/>
	<rect x="64" y="416" style="fill:#333333;" width="176" height="16"/>
	<rect x="224" y="448" style="fill:#333333;" width="16" height="16"/>
	<rect x="64" y="448" style="fill:#333333;" width="144" height="16"/>
</g>
<g>
</g>
<g>
</g>
<g>
</g>
<g>
</g>
<g>
</g>
<g>
</g>
<g>
</g>
<g>
</g>
<g>
</g>
<g>
</g>
<g>
</g>
<g>
</g>
<g>
</g>
<g>
</g>
<g>
</g>
</svg>
