<?xml version="1.0" encoding="iso-8859-1"?>
<!-- Generator: Adobe Illustrator 19.0.0, SVG Export Plug-In . SVG Version: 6.00 Build 0)  -->
<svg xmlns="http://www.w3.org/2000/svg" xmlns:xlink="http://www.w3.org/1999/xlink" version="1.1" id="Layer_1" x="0px" y="0px" viewBox="0 0 496 496" style="enable-background:new 0 0 496 496;" xml:space="preserve">
<path style="fill:#333333;" d="M431.72,139.336c0.072-1.112,0.28-2.216,0.28-3.336c0-29.144-22.368-53.152-50.84-55.768  C370.264,33.368,328.728,0,280,0c-42.272,0-80.24,25.744-96.168,64.528C181.264,64.216,178.656,64,176,64  c-27.112,0-50.28,16.968-59.592,40.824C112.296,104.336,108.16,104,104,104C46.656,104,0,150.656,0,208  c0,47.472,32.064,88.888,77.976,100.72l3.992-15.504C43.128,283.208,16,248.168,16,208c0-48.52,39.48-88,88-88  c2.84,0,5.672,0.176,8.488,0.44c-0.296,2.488-0.488,5-0.488,7.56c0,35.288,28.712,64,64,64v-16c-26.472,0-48-21.528-48-48  s21.528-48,48-48s48,21.528,48,48h16c0-27-16.84-50.104-40.544-59.488C213.416,36.856,244.984,16,280,16  c43.112,0,79.56,30.864,86.68,73.392l1.16,6.904L376,96c22.056,0,40,17.944,40,40c0,0.136-0.032,0.264-0.032,0.4  c-2.632-0.232-5.28-0.4-7.968-0.4c-23.176,0-45.056,8.936-61.608,25.168l11.2,11.424C371.136,159.312,389.032,152,408,152  c39.696,0,72,32.296,72,72c0,37.168-27.848,67.968-64.784,71.64l1.576,15.92C461.952,307.08,496,269.432,496,224  C496,183.704,468.744,149.728,431.72,139.336z"/>
<path style="fill:#fe2911;" d="M424,496H72V224h352V496z"/>
<g>
	<rect x="88" y="240" style="fill:#333333;" width="16" height="16"/>
	<rect x="120" y="240" style="fill:#333333;" width="16" height="16"/>
	<rect x="152" y="240" style="fill:#333333;" width="16" height="16"/>
	<rect x="72" y="272" style="fill:#333333;" width="352" height="16"/>
	<path style="fill:#333333;" d="M264,464H104V320h160V464z M120,448h128V336H120V448z"/>
	<rect x="280" y="320" style="fill:#333333;" width="112" height="16"/>
	<rect x="312" y="352" style="fill:#333333;" width="80" height="16"/>
	<rect x="280" y="352" style="fill:#333333;" width="16" height="16"/>
	<rect x="280" y="384" style="fill:#333333;" width="112" height="16"/>
	<rect x="280" y="416" style="fill:#333333;" width="112" height="16"/>
	<rect x="376" y="448" style="fill:#333333;" width="16" height="16"/>
	<rect x="280" y="448" style="fill:#333333;" width="80" height="16"/>
</g>
<g>
</g>
<g>
</g>
<g>
</g>
<g>
</g>
<g>
</g>
<g>
</g>
<g>
</g>
<g>
</g>
<g>
</g>
<g>
</g>
<g>
</g>
<g>
</g>
<g>
</g>
<g>
</g>
<g>
</g>
</svg>
