<?xml version="1.0" encoding="iso-8859-1"?>
<!-- Generator: Adobe Illustrator 19.0.0, SVG Export Plug-In . SVG Version: 6.00 Build 0)  -->
<svg xmlns="http://www.w3.org/2000/svg" xmlns:xlink="http://www.w3.org/1999/xlink" version="1.1" id="Layer_1" x="0px" y="0px" viewBox="0 0 496 496" style="enable-background:new 0 0 496 496;" xml:space="preserve">
<circle style="fill:#fe2911;" cx="248" cy="144" r="96"/>
<g>
	<path style="fill:#333333;" d="M456,96h-72.4C363.768,40.168,310.552,0,248,0S132.232,40.168,112.4,96H40   c-22.056,0-40,17.944-40,40v272c0,22.056,17.944,40,40,40h96v32h-32v16h288v-16h-32v-32h96c22.056,0,40-17.944,40-40V136   C496,113.944,478.056,96,456,96z M448,224c0,39.704-32.304,72-72,72c-22.224,0-42.688-10.088-56.296-27.304   c40.472-23.368,68.488-65.792,71.8-114.96C424.232,160.84,448,189.672,448,224z M177.232,37.432l7.832,13.576l13.856-8l-7.8-13.512   c14.896-7.432,31.4-12,48.872-13.096V32h16V16.408c17.472,1.088,33.976,5.664,48.872,13.096l-7.8,13.512l13.856,8l7.832-13.576   c14.176,9.44,26.36,21.624,35.8,35.8l-13.568,7.832l8,13.856l13.504-7.8c7.424,14.896,12,31.4,13.088,48.872H360v16h15.592   c-1.088,17.472-5.664,33.976-13.088,48.872l-13.504-7.8l-8,13.856l13.568,7.832C331.608,249.224,292.424,272,248,272   s-83.608-22.776-106.568-57.232L155,206.936l-8-13.856l-13.504,7.8c-7.424-14.896-12-31.4-13.088-48.872H136v-16h-15.592   c1.088-17.472,5.664-33.976,13.088-48.872l13.504,7.8l8-13.856l-13.568-7.832C150.88,59.064,163.064,46.88,177.232,37.432z    M104.496,153.728c3.312,49.176,31.328,91.592,71.8,114.96C162.688,285.912,142.224,296,120,296c-39.696,0-72-32.296-72-72   C48,189.672,71.768,160.84,104.496,153.728z M40,112h67.712c-1.88,8.24-2.984,16.752-3.376,25.456   C62.648,144.888,32,180.904,32,224c0,48.52,39.48,88,88,88c28.248,0,54.088-13.392,70.672-35.976   C208.256,283.688,227.624,288,248,288s39.744-4.312,57.328-11.976C321.912,298.608,347.752,312,376,312c48.52,0,88-39.48,88-88   c0-43.096-30.648-79.112-72.328-86.544c-0.392-8.704-1.496-17.216-3.376-25.456H456c13.232,0,24,10.768,24,24v248H16V136   C16,122.768,26.768,112,40,112z M344,480H152v-32h192V480z M456,432H40c-13.232,0-24-10.768-24-24v-8h464v8   C480,421.232,469.232,432,456,432z"/>
	<path style="fill:#333333;" d="M224,144c0,13.232,10.768,24,24,24s24-10.768,24-24s-10.768-24-24-24   c-4.016,0-7.744,1.08-11.072,2.832l-47.72-40.904l-10.416,12.144l47.184,40.44C224.712,137.424,224,140.632,224,144z M256,144   c0,4.416-3.592,8-8,8s-8-3.584-8-8s3.592-8,8-8C252.408,136,256,139.584,256,144z"/>
	<rect x="80" y="184" style="fill:#333333;" width="16" height="16"/>
	<rect x="80" y="216" style="fill:#333333;" width="16" height="16"/>
	<rect x="80" y="248" style="fill:#333333;" width="16" height="16"/>
	<path style="fill:#333333;" d="M382.672,263.448l2.64,15.784C412.368,274.696,432,251.472,432,224   c0-18.696-9.28-36.08-24.816-46.512l-8.92,13.28C409.368,198.224,416,210.648,416,224C416,243.616,401.984,260.208,382.672,263.448   z"/>
	<path style="fill:#333333;" d="M366.656,279.208l2.696-15.768c-4.704-0.808-9.208-2.448-13.384-4.864l-8.04,13.832   C353.76,275.8,360.056,278.088,366.656,279.208z"/>
	<rect x="192" y="192" style="fill:#333333;" width="112" height="16"/>
	<rect x="288" y="224" style="fill:#333333;" width="16" height="16"/>
	<rect x="192" y="224" style="fill:#333333;" width="80" height="16"/>
</g>
<g>
</g>
<g>
</g>
<g>
</g>
<g>
</g>
<g>
</g>
<g>
</g>
<g>
</g>
<g>
</g>
<g>
</g>
<g>
</g>
<g>
</g>
<g>
</g>
<g>
</g>
<g>
</g>
<g>
</g>
</svg>
