<?xml version="1.0" encoding="iso-8859-1"?>
<!-- Generator: Adobe Illustrator 19.0.0, SVG Export Plug-In . SVG Version: 6.00 Build 0)  -->
<svg xmlns="http://www.w3.org/2000/svg" xmlns:xlink="http://www.w3.org/1999/xlink" version="1.1" id="Layer_1" x="0px" y="0px" viewBox="0 0 496 496" style="enable-background:new 0 0 496 496;" xml:space="preserve">
<circle style="fill:#fe2911;" cx="248" cy="112" r="80"/>
<g>
	<path style="fill:#333333;" d="M472,384V120c0-22.056-17.944-40-40-40h-76.72C341.472,33.8,298.632,0,248,0s-93.472,33.8-107.28,80   H64c-22.056,0-40,17.944-40,40v264H0v72c0,22.056,17.944,40,40,40h416c22.056,0,40-17.944,40-40v-72H472z M432,96   c13.232,0,24,10.768,24,24v264h-32V128h-64v-16c0-5.448-0.52-10.76-1.28-16H432z M248,16c52.936,0,96,43.064,96,96v40   c0,11.032-8.968,20-20,20s-20-8.968-20-20v-32v-8v-8c0-30.872-25.128-56-56-56s-56,25.128-56,56v16c0,30.872,25.128,56,56,56   c16.008,0,30.432-6.792,40.648-17.6c3.04,16.8,17.696,29.6,35.352,29.6c19.848,0,36-16.152,36-36v-8h48v240H88V144h52.72   c13.808,46.2,56.648,80,107.28,80h56v-16h-56c-52.936,0-96-43.064-96-96S195.064,16,248,16z M288,120c0,22.056-17.944,40-40,40   s-40-17.944-40-40v-16c0-22.056,17.944-40,40-40s40,17.944,40,40v8V120z M40,120c0-13.232,10.768-24,24-24h73.28   c-0.76,5.24-1.28,10.552-1.28,16s0.52,10.76,1.28,16H72v256H40V120z M480,456c0,13.232-10.768,24-24,24H40   c-13.232,0-24-10.768-24-24v-56h8h48h352h48h8V456z"/>
	<path style="fill:#333333;" d="M320,464h144v-48H320V464z M448,448h-48v-16h48V448z M336,432h48v16h-48V432z"/>
	<path style="fill:#333333;" d="M32,464h144v-48H32V464z M96,448H80v-16h16V448z M112,432h16v16h-16V432z M160,448h-16v-16h16V448z    M48,432h16v16H48V432z"/>
	<path style="fill:#333333;" d="M280,416c-13.232,0-24,10.768-24,24s10.768,24,24,24s24-10.768,24-24S293.232,416,280,416z M280,448   c-4.416,0-8-3.584-8-8s3.584-8,8-8s8,3.584,8,8S284.416,448,280,448z"/>
	<path style="fill:#333333;" d="M216,416c-13.232,0-24,10.768-24,24s10.768,24,24,24s24-10.768,24-24S229.232,416,216,416z M216,448   c-4.416,0-8-3.584-8-8s3.584-8,8-8s8,3.584,8,8S220.416,448,216,448z"/>
	<rect x="376" y="352" style="fill:#333333;" width="16" height="16"/>
	<rect x="104" y="352" style="fill:#333333;" width="256" height="16"/>
</g>
<g>
</g>
<g>
</g>
<g>
</g>
<g>
</g>
<g>
</g>
<g>
</g>
<g>
</g>
<g>
</g>
<g>
</g>
<g>
</g>
<g>
</g>
<g>
</g>
<g>
</g>
<g>
</g>
<g>
</g>
</svg>
