<?xml version="1.0" encoding="iso-8859-1"?>
<!-- Generator: Adobe Illustrator 19.0.0, SVG Export Plug-In . SVG Version: 6.00 Build 0)  -->
<svg xmlns="http://www.w3.org/2000/svg" xmlns:xlink="http://www.w3.org/1999/xlink" version="1.1" id="Layer_1" x="0px" y="0px" viewBox="0 0 496 496" style="enable-background:new 0 0 496 496;" xml:space="preserve">
<path style="fill:#333333;" d="M456,80h-56v16h56c13.232,0,24,10.768,24,24v264H16V120c0-13.232,10.768-24,24-24h56V80H40  C17.944,80,0,97.944,0,120v288c0,22.056,17.944,40,40,40h88v32h-24v16h288v-16h-24v-32h88c22.056,0,40-17.944,40-40V120  C496,97.944,478.056,80,456,80z M352,480H144v-32h208V480z M456,432H40c-13.232,0-24-10.768-24-24v-8h464v8  C480,421.232,469.232,432,456,432z"/>
<path style="fill:#fe2911;" d="M408,368H88V0h320V368z"/>
<g>
	<rect x="120" y="32" style="fill:#333333;" width="16" height="16"/>
	<rect x="152" y="32" style="fill:#333333;" width="16" height="16"/>
	<rect x="184" y="32" style="fill:#333333;" width="16" height="16"/>
	<rect x="120" y="96" style="fill:#333333;" width="256" height="16"/>
	<rect x="120" y="128" style="fill:#333333;" width="224" height="16"/>
	<rect x="120" y="160" style="fill:#333333;" width="256" height="16"/>
	<rect x="360" y="128" style="fill:#333333;" width="16" height="16"/>
	<polygon style="fill:#333333;" points="224,336 160,336 160,283.832 136,273.36 136,252.496 160,242.264 160,192 224,192 224,208    176,208 176,252.84 152.208,262.976 176,273.368 176,320 224,320  "/>
	<polygon style="fill:#333333;" points="336,336 272,336 272,320 320,320 320,273.368 343.792,262.976 320,252.84 320,208 272,208    272,192 336,192 336,242.264 360,252.496 360,273.36 336,283.832  "/>
	<rect x="88" y="64" style="fill:#333333;" width="320" height="16"/>
	<path style="fill:#333333;" d="M280,304h-32c-22.056,0-40-17.944-40-40s17.944-40,40-40h32v16h-32c-13.232,0-24,10.768-24,24   s10.768,24,24,24h32V304z"/>
	<rect x="424" y="232" style="fill:#333333;" width="16" height="16"/>
	<rect x="424" y="200" style="fill:#333333;" width="16" height="16"/>
	<rect x="424" y="264" style="fill:#333333;" width="16" height="16"/>
	<rect x="56" y="232" style="fill:#333333;" width="16" height="16"/>
	<rect x="56" y="200" style="fill:#333333;" width="16" height="16"/>
	<rect x="56" y="264" style="fill:#333333;" width="16" height="16"/>
</g>
<g>
</g>
<g>
</g>
<g>
</g>
<g>
</g>
<g>
</g>
<g>
</g>
<g>
</g>
<g>
</g>
<g>
</g>
<g>
</g>
<g>
</g>
<g>
</g>
<g>
</g>
<g>
</g>
<g>
</g>
</svg>
