<?xml version="1.0" encoding="iso-8859-1"?>
<!-- Generator: Adobe Illustrator 19.0.0, SVG Export Plug-In . SVG Version: 6.00 Build 0)  -->
<svg xmlns="http://www.w3.org/2000/svg" xmlns:xlink="http://www.w3.org/1999/xlink" version="1.1" id="Layer_1" x="0px" y="0px" viewBox="0 0 496 496" style="enable-background:new 0 0 496 496;" xml:space="preserve">
<path style="fill:#fe2911;" d="M448,352H0V0h448V352z"/>
<g>
	<polygon style="fill:#333333;" points="284.584,270.552 275.416,257.448 346.048,208 275.416,158.552 284.584,145.448 373.952,208     "/>
	<polygon style="fill:#333333;" points="163.416,270.552 74.048,208 163.416,145.448 172.584,158.552 101.952,208 172.584,257.448     "/>
	
		<rect x="122.801" y="199.995" transform="matrix(-0.3165 0.9486 -0.9486 -0.3165 492.1867 61.3414)" style="fill:#333333;" width="202.385" height="15.992"/>
	<path style="fill:#333333;" d="M456,112h-8v16h8c13.232,0,24,10.768,24,24v232H48v-32H32v56c0,22.056,17.944,40,40,40h80v32h-32v16   h32h224h32v-16h-32v-32h80c22.056,0,40-17.944,40-40V152C496,129.944,478.056,112,456,112z M360,480H168v-32h192V480z M456,432h-80   H152H72c-13.232,0-24-10.768-24-24v-8h432v8C480,421.232,469.232,432,456,432z"/>
	<rect x="16" y="16" style="fill:#333333;" width="16" height="16"/>
	<rect x="48" y="16" style="fill:#333333;" width="16" height="16"/>
	<rect x="80" y="16" style="fill:#333333;" width="16" height="16"/>
	<rect y="48" style="fill:#333333;" width="448" height="16"/>
</g>
<g>
</g>
<g>
</g>
<g>
</g>
<g>
</g>
<g>
</g>
<g>
</g>
<g>
</g>
<g>
</g>
<g>
</g>
<g>
</g>
<g>
</g>
<g>
</g>
<g>
</g>
<g>
</g>
<g>
</g>
</svg>
