<?xml version="1.0" encoding="iso-8859-1"?>
<!-- Generator: Adobe Illustrator 19.0.0, SVG Export Plug-In . SVG Version: 6.00 Build 0)  -->
<svg xmlns="http://www.w3.org/2000/svg" xmlns:xlink="http://www.w3.org/1999/xlink" version="1.1" id="Layer_1" x="0px" y="0px" viewBox="0 0 496 496" style="enable-background:new 0 0 496 496;" xml:space="preserve">
<path style="fill:#333333;" d="M496,224H224V0h272V224z M240,208h240V16H240V208z"/>
<path style="fill:#fe2911;" d="M464,128H256V32h208V128z"/>
<g>
	<path style="fill:#333333;" d="M496,304v-48h-48v16H344v-16h-48v16H192v16h104v16h48v-16h104v16h16v48h-16v48h16v48h-16v16H344v-16   h-48v16H192v-16h-16v-48h16v-48h-16v-16h-16v16h-16v48h16v48h-16v48h48v-16h104v16h48v-16h104v16h48v-48h-16v-48h16v-48h-16v-48   H496z M328,288h-16v-16h16V288z M160,368h16v16h-16V368z M176,480h-16v-16h16V480z M328,480h-16v-16h16V480z M480,480h-16v-16h16   V480z M480,384h-16v-16h16V384z M464,288v-16h16v16H464z"/>
	<path style="fill:#333333;" d="M277.656,429.656l14.576-14.576C300.08,420.672,309.648,424,320,424c26.472,0,48-21.528,48-48   c0-10.352-3.328-19.92-8.92-27.768l14.576-14.576l-11.312-11.312l-14.576,14.576C339.92,331.328,330.352,328,320,328   c-26.472,0-48,21.528-48,48c0,10.352,3.328,19.92,8.92,27.768l-14.576,14.576L277.656,429.656z M320,344c17.648,0,32,14.352,32,32   s-14.352,32-32,32s-32-14.352-32-32S302.352,344,320,344z"/>
</g>
<polygon style="fill:#fe2911;" points="24,224 8,320 96,400 112,400 200,320 184,224 "/>
<g>
	<path style="fill:#333333;" d="M136,280c0-17.648-14.352-32-32-32s-32,14.352-32,32c0,14.872,10.24,27.288,24,30.864V400h16   v-89.136C125.76,307.288,136,294.872,136,280z M104,296c-8.824,0-16-7.176-16-16s7.176-16,16-16s16,7.176,16,16   S112.824,296,104,296z"/>
	<rect x="448" y="176" style="fill:#333333;" width="16" height="16"/>
	<rect x="256" y="176" style="fill:#333333;" width="176" height="16"/>
	<rect x="256" y="144" style="fill:#333333;" width="208" height="16"/>
	<path style="fill:#333333;" d="M192,160V0H16v160H0v64h208v-64H192z M32,144h112v-16H32V16h144v112h-16v16h16v16H32V144z M192,208   H16v-32h176V208z"/>
</g>
<g>
</g>
<g>
</g>
<g>
</g>
<g>
</g>
<g>
</g>
<g>
</g>
<g>
</g>
<g>
</g>
<g>
</g>
<g>
</g>
<g>
</g>
<g>
</g>
<g>
</g>
<g>
</g>
<g>
</g>
</svg>
