<?xml version="1.0" encoding="iso-8859-1"?>
<!-- Generator: Adobe Illustrator 19.0.0, SVG Export Plug-In . SVG Version: 6.00 Build 0)  -->
<svg xmlns="http://www.w3.org/2000/svg" xmlns:xlink="http://www.w3.org/1999/xlink" version="1.1" id="Layer_1" x="0px" y="0px" viewBox="0 0 496 496" style="enable-background:new 0 0 496 496;" xml:space="preserve">
<path style="fill:#fe2911;" d="M136,256H32v208h224V296h-96c-13.256,0-24-10.744-24-24V256z"/>
<g>
	<rect x="32" y="192" style="fill:#333333;" width="16" height="16"/>
	<rect x="64" y="192" style="fill:#333333;" width="16" height="16"/>
	<rect x="96" y="192" style="fill:#333333;" width="16" height="16"/>
	<path style="fill:#333333;" d="M464,64V32H264V0H128v160H0v336h448V304h16c17.648,0,32-14.352,32-32V64H464z M144,16h104v32h200v16   H176v208c0,8.824-7.176,16-16,16s-16-7.176-16-16V16z M128,176v48H16v-48H128z M432,480H16V240h112v32c0,17.648,14.352,32,32,32   h272V480z M480,272c0,8.824-7.176,16-16,16H187.704c2.736-4.712,4.296-10.176,4.296-16V80h288V272z"/>
	<rect x="400" y="120" style="fill:#333333;" width="16" height="128"/>
</g>
<path style="fill:#fe2911;" d="M344.48,152c-12.112-24.472-36.856-40-64.48-40c-39.704,0-72,32.296-72,72s32.296,72,72,72  c27.616,0,52.368-15.528,64.48-40H400v-64H344.48z"/>
<g>
	<path style="fill:#333333;" d="M264,208c-13.232,0-24-10.768-24-24s10.768-24,24-24s24,10.768,24,24S277.232,208,264,208z M264,176   c-4.408,0-8,3.584-8,8s3.592,8,8,8s8-3.584,8-8S268.408,176,264,176z"/>
	<rect x="304" y="352" style="fill:#333333;" width="112" height="16"/>
	<rect x="272" y="352" style="fill:#333333;" width="16" height="16"/>
	<rect x="272" y="384" style="fill:#333333;" width="144" height="16"/>
	<rect x="272" y="416" style="fill:#333333;" width="144" height="16"/>
	<rect x="400" y="448" style="fill:#333333;" width="16" height="16"/>
	<rect x="272" y="448" style="fill:#333333;" width="112" height="16"/>
	<rect x="272" y="320" style="fill:#333333;" width="144" height="16"/>
</g>
<g>
</g>
<g>
</g>
<g>
</g>
<g>
</g>
<g>
</g>
<g>
</g>
<g>
</g>
<g>
</g>
<g>
</g>
<g>
</g>
<g>
</g>
<g>
</g>
<g>
</g>
<g>
</g>
<g>
</g>
</svg>
