<?xml version="1.0" encoding="iso-8859-1"?>
<!-- Generator: Adobe Illustrator 19.0.0, SVG Export Plug-In . SVG Version: 6.00 Build 0)  -->
<svg xmlns="http://www.w3.org/2000/svg" xmlns:xlink="http://www.w3.org/1999/xlink" version="1.1" id="Layer_1" x="0px" y="0px" viewBox="0 0 496 496" style="enable-background:new 0 0 496 496;" xml:space="preserve">
<g>
	<path style="fill:#fe2911;" d="M496,272H224V96h272V272z"/>
	<path style="fill:#fe2911;" d="M496,464H224V288h272V464z"/>
</g>
<g>
	<path style="fill:#333333;" d="M368,480H16V80h352v16h16V0H0v496h384v-32h-16V480z M368,16v48H16V16H368z"/>
	<rect x="32" y="32" style="fill:#333333;" width="16" height="16"/>
	<rect x="64" y="32" style="fill:#333333;" width="16" height="16"/>
	<rect x="96" y="32" style="fill:#333333;" width="16" height="16"/>
	<rect x="368" y="272" style="fill:#333333;" width="16" height="16"/>
	<rect x="256" y="128" style="fill:#333333;" width="208" height="16"/>
	<rect x="288" y="160" style="fill:#333333;" width="176" height="16"/>
	<rect x="256" y="160" style="fill:#333333;" width="16" height="16"/>
	<rect x="256" y="192" style="fill:#333333;" width="208" height="16"/>
	<rect x="448" y="224" style="fill:#333333;" width="16" height="16"/>
	<rect x="256" y="224" style="fill:#333333;" width="176" height="16"/>
	<polygon style="fill:#333333;" points="306.344,322.344 252.688,376 306.344,429.656 317.656,418.344 275.312,376 317.656,333.656     "/>
	<polygon style="fill:#333333;" points="413.656,322.344 402.344,333.656 444.688,376 402.344,418.344 413.656,429.656 467.312,376     "/>
	
		<rect x="309.425" y="367.983" transform="matrix(-0.3162 0.9487 -0.9487 -0.3162 830.5516 153.3183)" style="fill:#333333;" width="101.193" height="16"/>
	<path style="fill:#333333;" d="M224,192v-16h-60l-36.336,48.456C118.312,219.104,107.52,216,96,216c-35.288,0-64,28.712-64,64   s28.712,64,64,64c11.52,0,22.312-3.104,31.664-8.456L164,384h60v-16h-52l-31.544-42.056C152.48,314.296,160,298.024,160,280   s-7.52-34.296-19.544-45.944L172,192H224z M144,280c0,26.472-21.528,48-48,48s-48-21.528-48-48s21.528-48,48-48   S144,253.528,144,280z"/>
	<rect x="88" y="272" style="fill:#333333;" width="16" height="16"/>
	<rect x="120" y="272" style="fill:#333333;" width="16" height="16"/>
	<rect x="56" y="272" style="fill:#333333;" width="16" height="16"/>
</g>
<g>
</g>
<g>
</g>
<g>
</g>
<g>
</g>
<g>
</g>
<g>
</g>
<g>
</g>
<g>
</g>
<g>
</g>
<g>
</g>
<g>
</g>
<g>
</g>
<g>
</g>
<g>
</g>
<g>
</g>
</svg>
