<?xml version="1.0" encoding="iso-8859-1"?>
<!-- Generator: Adobe Illustrator 19.0.0, SVG Export Plug-In . SVG Version: 6.00 Build 0)  -->
<svg xmlns="http://www.w3.org/2000/svg" xmlns:xlink="http://www.w3.org/1999/xlink" version="1.1" id="Layer_1" x="0px" y="0px" viewBox="0 0 496 496" style="enable-background:new 0 0 496 496;" xml:space="preserve">
<g>
	
		<rect x="191.429" y="232.005" transform="matrix(-0.7071 0.7071 -0.7071 -0.7071 593.0523 234.3594)" style="fill:#333333;" width="113.119" height="16"/>
	
		<rect x="319.989" y="183.434" transform="matrix(-0.7071 0.7071 -0.7071 -0.7071 729.6129 177.7716)" style="fill:#333333;" width="16" height="113.119"/>
</g>
<g>
	<path style="fill:#fe2911;" d="M384,208H192V96h192V208z"/>
	<path style="fill:#fe2911;" d="M432,384H304V272h128V384z"/>
	<path style="fill:#fe2911;" d="M272,384H144V272h128V384z"/>
</g>
<g>
	<rect x="224" y="128" style="fill:#333333;" width="128" height="16"/>
	<rect x="336" y="160" style="fill:#333333;" width="16" height="16"/>
	<rect x="224" y="160" style="fill:#333333;" width="96" height="16"/>
	<rect x="176" y="304" style="fill:#333333;" width="64" height="16"/>
	<rect x="224" y="336" style="fill:#333333;" width="16" height="16"/>
	<rect x="176" y="336" style="fill:#333333;" width="32" height="16"/>
	<rect x="336" y="304" style="fill:#333333;" width="64" height="16"/>
	<rect x="384" y="336" style="fill:#333333;" width="16" height="16"/>
	<rect x="336" y="336" style="fill:#333333;" width="32" height="16"/>
	<path style="fill:#333333;" d="M496,0H80v80H0v416h416v-80h80V0z M480,16v48H96V16H480z M400,480H16V96h64v320h320V480z M96,400V80   h384v320H96z"/>
	<rect x="112" y="32" style="fill:#333333;" width="16" height="16"/>
	<rect x="144" y="32" style="fill:#333333;" width="16" height="16"/>
	<rect x="176" y="32" style="fill:#333333;" width="16" height="16"/>
	<polygon style="fill:#333333;" points="352,464 32,464 32,112 48,112 48,448 352,448  "/>
	<rect x="368" y="448" style="fill:#333333;" width="16" height="16"/>
</g>
<g>
</g>
<g>
</g>
<g>
</g>
<g>
</g>
<g>
</g>
<g>
</g>
<g>
</g>
<g>
</g>
<g>
</g>
<g>
</g>
<g>
</g>
<g>
</g>
<g>
</g>
<g>
</g>
<g>
</g>
</svg>
