<?xml version="1.0" encoding="iso-8859-1"?>
<!-- Generator: Adobe Illustrator 19.0.0, SVG Export Plug-In . SVG Version: 6.00 Build 0)  -->
<svg xmlns="http://www.w3.org/2000/svg" xmlns:xlink="http://www.w3.org/1999/xlink" version="1.1" id="Layer_1" x="0px" y="0px" viewBox="0 0 496 496" style="enable-background:new 0 0 496 496;" xml:space="preserve">
<path style="fill:#fe2911;" d="M160,200H96v-48h64V200z"/>
<rect x="120" y="200" style="fill:#333333;" width="16" height="136"/>
<path style="fill:#fe2911;" d="M240,296h-64v-48h64V296z"/>
<rect x="200" y="296" style="fill:#333333;" width="16" height="40"/>
<path style="fill:#fe2911;" d="M320,248h-64v-48h64V248z"/>
<rect x="280" y="248" style="fill:#333333;" width="16" height="88"/>
<path style="fill:#fe2911;" d="M400,184h-64v-48h64V184z"/>
<g>
	<path style="fill:#333333;" d="M456,80h-24V0H64v80H40C17.944,80,0,97.944,0,120v288c0,22.056,17.944,40,40,40h88v32h-24v16h288   v-16h-24v-32h88c22.056,0,40-17.944,40-40V120C496,97.944,478.056,80,456,80z M80,16h336v48H80V16z M80,80h336v272H80V80z M40,96   h24v272h368V96h24c13.232,0,24,10.768,24,24v264H16V120C16,106.768,26.768,96,40,96z M352,480H144v-32h208V480z M456,432H40   c-13.232,0-24-10.768-24-24v-8h464v8C480,421.232,469.232,432,456,432z"/>
	<rect x="120" y="32" style="fill:#333333;" width="16" height="16"/>
	<rect x="152" y="32" style="fill:#333333;" width="16" height="16"/>
	<rect x="184" y="32" style="fill:#333333;" width="16" height="16"/>
	<rect x="120" y="96" style="fill:#333333;" width="16" height="56"/>
	<rect x="200" y="96" style="fill:#333333;" width="16" height="152"/>
	<rect x="280" y="96" style="fill:#333333;" width="16" height="104"/>
	<rect x="360" y="96" style="fill:#333333;" width="16" height="40"/>
	<rect x="360" y="320" style="fill:#333333;" width="16" height="16"/>
	<rect x="360" y="184" style="fill:#333333;" width="16" height="120"/>
</g>
<g>
</g>
<g>
</g>
<g>
</g>
<g>
</g>
<g>
</g>
<g>
</g>
<g>
</g>
<g>
</g>
<g>
</g>
<g>
</g>
<g>
</g>
<g>
</g>
<g>
</g>
<g>
</g>
<g>
</g>
</svg>
