<?xml version="1.0" encoding="iso-8859-1"?>
<!-- Generator: Adobe Illustrator 19.0.0, SVG Export Plug-In . SVG Version: 6.00 Build 0)  -->
<svg xmlns="http://www.w3.org/2000/svg" xmlns:xlink="http://www.w3.org/1999/xlink" version="1.1" id="Layer_1" x="0px" y="0px" viewBox="0 0 496 496" style="enable-background:new 0 0 496 496;" xml:space="preserve">
<path style="fill:#fe2911;" d="M288,416H48V240h240V416z"/>
<g>
	<path style="fill:#333333;" d="M312,24c-10.416,0-19.216,6.712-22.528,16H40v105.472c-9.288,3.312-16,12.112-16,22.528   c0,13.232,10.768,24,24,24s24-10.768,24-24c0-10.416-6.712-19.216-16-22.528V56h233.472c3.312,9.288,12.112,16,22.528,16   c13.232,0,24-10.768,24-24S325.232,24,312,24z M48,176c-4.416,0-8-3.592-8-8s3.584-8,8-8s8,3.592,8,8S52.416,176,48,176z M312,56   c-4.416,0-8-3.592-8-8s3.584-8,8-8c4.416,0,8,3.592,8,8S316.416,56,312,56z"/>
	<path style="fill:#333333;" d="M312,88c-10.416,0-19.216,6.712-22.528,16H72v16h96v25.472c-9.288,3.312-16,12.112-16,22.528   c0,13.232,10.768,24,24,24s24-10.768,24-24c0-10.416-6.712-19.216-16-22.528V120h105.472c3.312,9.288,12.112,16,22.528,16   c13.232,0,24-10.768,24-24S325.232,88,312,88z M176,176c-4.416,0-8-3.592-8-8s3.584-8,8-8s8,3.592,8,8S180.416,176,176,176z    M312,120c-4.416,0-8-3.592-8-8s3.584-8,8-8c4.416,0,8,3.592,8,8S316.416,120,312,120z"/>
	<rect x="264" y="72" style="fill:#333333;" width="16" height="16"/>
	<rect x="72" y="72" style="fill:#333333;" width="176" height="16"/>
	<rect x="240" y="368" style="fill:#333333;" width="16" height="16"/>
	<rect x="80" y="368" style="fill:#333333;" width="144" height="16"/>
	<path style="fill:#333333;" d="M384,424c0,22.056,17.944,40,40,40c22.056,0,40-17.944,40-40s-17.944-40-40-40   C401.944,384,384,401.944,384,424z M448,424c0,13.232-10.768,24-24,24s-24-10.768-24-24s10.768-24,24-24S448,410.768,448,424z"/>
	<path style="fill:#333333;" d="M320,232c0-13.232-10.768-24-24-24H40c-13.232,0-24,10.768-24,24v200H0v40c0,13.232,10.768,24,24,24   h288c13.232,0,24-10.768,24-24v-40h-16V232z M32,232c0-4.408,3.584-8,8-8h256c4.416,0,8,3.592,8,8v200H32V232z M320,472   c0,4.416-3.584,8-8,8H24c-4.416,0-8-3.584-8-8v-24h304V472z"/>
	<path style="fill:#333333;" d="M496,96V28.688L467.312,0H440v80h-32V0h-27.312L352,28.688V96c0,22.056,17.944,40,40,40v223.52   c-24.472,12.112-40,36.856-40,64.48c0,39.704,32.296,72,72,72c39.704,0,72-32.296,72-72c0-27.616-15.528-52.368-40-64.48V136   C478.056,136,496,118.056,496,96z M480,424c0,30.872-25.128,56-56,56s-56-25.128-56-56c0-22.904,13.744-43.272,35.008-51.888   l4.992-2.024V320h32v50.088l4.992,2.024C466.256,380.728,480,401.096,480,424z M440,208h-32v-72h32V208z M408,224h32v16h-32V224z    M408,256h32v16h-32V256z M408,288h32v16h-32V288z M392,120c-13.232,0-24-10.768-24-24V35.312L387.312,16H392v80h64V16h4.688   L480,35.312V96c0,13.232-10.768,24-24,24H392z"/>
</g>
<g>
</g>
<g>
</g>
<g>
</g>
<g>
</g>
<g>
</g>
<g>
</g>
<g>
</g>
<g>
</g>
<g>
</g>
<g>
</g>
<g>
</g>
<g>
</g>
<g>
</g>
<g>
</g>
<g>
</g>
</svg>
