<?xml version="1.0" encoding="iso-8859-1"?>
<!-- Generator: Adobe Illustrator 19.0.0, SVG Export Plug-In . SVG Version: 6.00 Build 0)  -->
<svg xmlns="http://www.w3.org/2000/svg" xmlns:xlink="http://www.w3.org/1999/xlink" version="1.1" id="Layer_1" x="0px" y="0px" viewBox="0 0 496 496" style="enable-background:new 0 0 496 496;" xml:space="preserve">
<g>
	<path style="fill:#fe2911;" d="M496,144H368V0h128V144z"/>
	<path style="fill:#fe2911;" d="M128,144H0V0h128V144z"/>
</g>
<g>
	<rect x="400" y="32" style="fill:#333333;" width="64" height="16"/>
	<rect x="400" y="64" style="fill:#333333;" width="64" height="16"/>
	<rect x="32" y="32" style="fill:#333333;" width="64" height="16"/>
	<rect x="32" y="64" style="fill:#333333;" width="32" height="16"/>
	<rect x="80" y="64" style="fill:#333333;" width="16" height="16"/>
	<rect x="448" y="96" style="fill:#333333;" width="16" height="16"/>
	<rect x="400" y="96" style="fill:#333333;" width="32" height="16"/>
	<rect x="32" y="96" style="fill:#333333;" width="64" height="16"/>
	<path style="fill:#333333;" d="M303.168,192C332.448,173.584,352,141.072,352,104C352,46.656,305.344,0,248,0S144,46.656,144,104   c0,37.072,19.552,69.584,48.832,88H0v64h16v240h48V256h368v240h48V256h16v-64H303.168z M272.144,188.552   c7.064-8.048,14.736-18.848,20.8-32.32c9.024,1.864,15.976,4.048,20.936,5.944C302.904,174.568,288.496,183.872,272.144,188.552z    M256,112h31.52c-0.664,9.608-2.384,18.368-4.904,26.248c-7.864-1.072-16.712-1.832-26.616-2.104V112z M303.576,112h32.048   c-1.216,13.376-5.472,25.856-12.024,36.832c-5.56-2.392-13.84-5.328-25.048-7.792C301.184,132.272,302.936,122.568,303.576,112z    M303.576,96c-0.656-10.848-2.472-20.808-5.224-29.76c10.792-2.52,19.264-5.36,24.952-7.56c6.712,11.088,11.08,23.744,12.312,37.32   H303.576z M287.52,96H256V71.84c9.544-0.336,18.392-1.256,26.424-2.504C285.04,77.336,286.832,86.24,287.52,96z M240,96h-31.52   c0.664-9.608,2.384-18.368,4.904-26.248c7.864,1.072,16.712,1.832,26.616,2.104V96z M192.424,96h-32.048   c1.216-13.376,5.472-25.856,12.024-36.832c5.56,2.392,13.84,5.328,25.048,7.792C194.816,75.728,193.064,85.432,192.424,96z    M192.424,112c0.656,10.848,2.472,20.808,5.224,29.76c-10.792,2.52-19.264,5.36-24.952,7.56   c-6.712-11.088-11.08-23.744-12.312-37.32C160.384,112,192.424,112,192.424,112z M208.48,112H240v24.16   c-9.544,0.336-18.392,1.256-26.424,2.504C210.96,130.664,209.168,121.76,208.48,112z M240,152.16v30.224   c-6.336-6.536-13.96-16.064-20.2-28.432C226.072,153.096,232.8,152.44,240,152.16z M256,152.136   c7.52,0.224,14.336,0.744,20.528,1.472c-6.288,12.68-14.08,22.328-20.528,28.92V152.136z M313.408,45.256   c-5.264,1.848-12.256,3.984-20.776,5.872c-6.016-13.168-13.536-23.76-20.488-31.68C288.248,24.056,302.488,33.136,313.408,45.256z    M276.2,54.048c-6.272,0.856-13,1.512-20.2,1.792V25.616C262.336,32.152,269.96,41.68,276.2,54.048z M240,55.864   c-7.52-0.224-14.336-0.744-20.528-1.472c6.288-12.68,14.08-22.328,20.528-28.92V55.864z M223.856,19.448   c-7.064,8.048-14.736,18.848-20.8,32.32c-9.024-1.864-15.976-4.048-20.936-5.944C193.096,33.432,207.504,24.128,223.856,19.448z    M182.592,162.744c5.264-1.848,12.256-3.984,20.776-5.872c6.016,13.168,13.536,23.76,20.488,31.68   C207.752,183.944,193.512,174.864,182.592,162.744z M48,480H32V288h16V480z M48,272H32v-16h16V272z M464,480h-16V288h16V480z    M464,272h-16v-16h16V272z M480,240h-48H64H16v-32h464V240z"/>
	<path style="fill:#333333;" d="M104,368h16v128h48V368h160v128h48V368h16v-48H104V368z M152,480h-16V368h16V480z M360,480h-16V368   h16V480z M120,336h256v16h-48H168h-48V336z"/>
</g>
<g>
</g>
<g>
</g>
<g>
</g>
<g>
</g>
<g>
</g>
<g>
</g>
<g>
</g>
<g>
</g>
<g>
</g>
<g>
</g>
<g>
</g>
<g>
</g>
<g>
</g>
<g>
</g>
<g>
</g>
</svg>
