<?xml version="1.0" encoding="iso-8859-1"?>
<!-- Generator: Adobe Illustrator 19.0.0, SVG Export Plug-In . SVG Version: 6.00 Build 0)  -->
<svg xmlns="http://www.w3.org/2000/svg" xmlns:xlink="http://www.w3.org/1999/xlink" version="1.1" id="Layer_1" x="0px" y="0px" viewBox="0 0 496 496" style="enable-background:new 0 0 496 496;" xml:space="preserve">
<path style="fill:#fe2911;" d="M304,128H192c-8.84,0-16,7.16-16,16v112c0,8.84,7.16,16,16,16h112c8.84,0,16-7.16,16-16V144  C320,135.16,312.84,128,304,128z"/>
<g>
	<path style="fill:#333333;" d="M456,96h-24v16h24c13.232,0,24,10.768,24,24v248H16V136c0-13.232,10.768-24,24-24h88V96H40   c-22.056,0-40,17.944-40,40v272c0,22.056,17.944,40,40,40h96v32h-32v16h288v-16h-32v-32h96c22.056,0,40-17.944,40-40V136   C496,113.944,478.056,96,456,96z M344,480H152v-32h192V480z M456,432H40c-13.232,0-24-10.768-24-24v-8h464v8   C480,421.232,469.232,432,456,432z"/>
	<rect x="160" y="352" style="fill:#333333;" width="16" height="16"/>
	<rect x="192" y="352" style="fill:#333333;" width="16" height="16"/>
	<rect x="224" y="352" style="fill:#333333;" width="16" height="16"/>
	<rect x="256" y="352" style="fill:#333333;" width="16" height="16"/>
	<rect x="288" y="352" style="fill:#333333;" width="16" height="16"/>
	<rect x="320" y="352" style="fill:#333333;" width="16" height="16"/>
	<rect x="400" y="272" style="fill:#333333;" width="16" height="16"/>
	<rect x="400" y="240" style="fill:#333333;" width="16" height="16"/>
	<rect x="400" y="208" style="fill:#333333;" width="16" height="16"/>
	<rect x="400" y="176" style="fill:#333333;" width="16" height="16"/>
	<rect x="400" y="144" style="fill:#333333;" width="16" height="16"/>
	<rect x="400" y="112" style="fill:#333333;" width="16" height="16"/>
	<rect x="80" y="272" style="fill:#333333;" width="16" height="16"/>
	<rect x="80" y="240" style="fill:#333333;" width="16" height="16"/>
	<rect x="80" y="208" style="fill:#333333;" width="16" height="16"/>
	<rect x="80" y="176" style="fill:#333333;" width="16" height="16"/>
	<rect x="80" y="144" style="fill:#333333;" width="16" height="16"/>
	<path style="fill:#333333;" d="M112,144v16h32v16h-32v16h32v16h-32v16h32v16h-32v16h32v16h-32v16h32v16h16v32h16v-32h16v32h16v-32   h16v32h16v-32h16v32h16v-32h16v32h16v-32h16v32h16v-32h16v-16h32v-16h-32v-16h32v-16h-32v-16h32v-16h-32v-16h32v-16h-32v-16h32v-16   h-32v-16h32v-16h-32V96h-16V32h-16v64h-16V32h-16v64h-16V32h-16v64h-16V32h-16v64h-16V32h-16v64h-11.312L144,132.688V144H112z    M160,139.312L187.312,112H336v176H160V139.312z"/>
	<rect x="192" style="fill:#333333;" width="16" height="16"/>
	<rect x="224" style="fill:#333333;" width="16" height="16"/>
	<rect x="256" style="fill:#333333;" width="16" height="16"/>
	<rect x="288" style="fill:#333333;" width="16" height="16"/>
	<rect x="320" style="fill:#333333;" width="16" height="16"/>
	<polygon style="fill:#333333;" points="281.144,164.12 302.672,200 281.144,235.88 294.856,244.12 321.328,200 294.856,155.88  "/>
	<polygon style="fill:#333333;" points="201.144,155.88 174.672,200 201.144,244.12 214.856,235.88 193.328,200 214.856,164.12  "/>
	
		<rect x="204.893" y="192.002" transform="matrix(-0.3715 0.9284 -0.9284 -0.3715 525.7825 44.081)" style="fill:#333333;" width="86.157" height="16"/>
</g>
<g>
</g>
<g>
</g>
<g>
</g>
<g>
</g>
<g>
</g>
<g>
</g>
<g>
</g>
<g>
</g>
<g>
</g>
<g>
</g>
<g>
</g>
<g>
</g>
<g>
</g>
<g>
</g>
<g>
</g>
</svg>
