<?xml version="1.0" encoding="iso-8859-1"?>
<!-- Generator: Adobe Illustrator 19.0.0, SVG Export Plug-In . SVG Version: 6.00 Build 0)  -->
<svg xmlns="http://www.w3.org/2000/svg" xmlns:xlink="http://www.w3.org/1999/xlink" version="1.1" id="Layer_1" x="0px" y="0px" viewBox="0 0 496 496" style="enable-background:new 0 0 496 496;" xml:space="preserve">
<g>
	<path style="fill:#333333;" d="M496,152C496,68.184,427.816,0,344,0S192,68.184,192,152c0,40.24,15.832,76.784,41.456,104H152v16   h99.048c1.624,1.264,3.272,2.504,4.952,3.704V384H16V280c0-4.416,3.592-8,8-8h32v-16H24c-13.232,0-24,10.768-24,24v144   c0,13.232,10.768,24,24,24h40v32H48v16h16h144h16v-16h-16v-32h40c13.232,0,24-10.768,24-24V285.816   c10.024,5.416,20.784,9.6,32,12.664V320h-8v16h8v120c0,22.056,17.944,40,40,40s40-17.944,40-40V336h8v-16h-8v-21.52   C448.44,280.856,496,221.952,496,152z M192,480H80v-32h112V480z M256,424c0,4.416-3.592,8-8,8h-40H64H24c-4.408,0-8-3.584-8-8v-24   h240V424z M344,16c74.992,0,136,61.008,136,136s-61.008,136-136,136s-136-61.008-136-136S269.008,16,344,16z M368,456   c0,13.232-10.768,24-24,24s-24-10.768-24-24V336h48V456z M368,320h-48v-18.088c7.84,1.256,15.816,2.088,24,2.088   s16.16-0.832,24-2.088V320z"/>
	<path style="fill:#333333;" d="M344,272c32.056,0,62.184-12.488,84.848-35.152c46.792-46.784,46.792-122.92,0-169.704   c-46.792-46.792-122.912-46.792-169.704,0c-46.792,46.784-46.792,122.92,0,169.704C281.816,259.512,311.944,272,344,272z    M270.464,78.464c20.272-20.28,46.904-30.416,73.536-30.416s53.264,10.136,73.536,30.408c40.544,40.552,40.544,106.528,0,147.08   C397.896,245.184,371.776,256,344,256s-53.896-10.816-73.536-30.464C229.912,184.992,229.912,119.008,270.464,78.464z"/>
	<path style="fill:#333333;" d="M344,80V64c-34.992,0-66.656,20.72-80.672,52.8l14.664,6.408C289.456,96.96,315.368,80,344,80z"/>
	<path style="fill:#333333;" d="M273.44,137.592l-15.68-3.184C256.592,140.16,256,146.072,256,152h16   C272,147.144,272.488,142.296,273.44,137.592z"/>
</g>
<polygon style="fill:#fe2911;" points="184,72 104,0 24,72 56,72 56,368 152,368 152,72 "/>
<g>
</g>
<g>
</g>
<g>
</g>
<g>
</g>
<g>
</g>
<g>
</g>
<g>
</g>
<g>
</g>
<g>
</g>
<g>
</g>
<g>
</g>
<g>
</g>
<g>
</g>
<g>
</g>
<g>
</g>
</svg>
