<?xml version="1.0" encoding="iso-8859-1"?>
<!-- Generator: Adobe Illustrator 19.0.0, SVG Export Plug-In . SVG Version: 6.00 Build 0)  -->
<svg xmlns="http://www.w3.org/2000/svg" xmlns:xlink="http://www.w3.org/1999/xlink" version="1.1" id="Layer_1" x="0px" y="0px" viewBox="0 0 496 496" style="enable-background:new 0 0 496 496;" xml:space="preserve">
<rect x="296" y="112" style="fill:#fe2911;" width="136" height="80"/>
<g>
	<path style="fill:#333333;" d="M288,144c-13.232,0-24-10.768-24-24s10.768-24,24-24s24,10.768,24,24S301.232,144,288,144z M288,112   c-4.408,0-8,3.592-8,8c0,4.408,3.592,8,8,8s8-3.592,8-8S292.408,112,288,112z"/>
	<path style="fill:#333333;" d="M440,208c-13.232,0-24-10.768-24-24s10.768-24,24-24s24,10.768,24,24S453.232,208,440,208z M440,176   c-4.408,0-8,3.592-8,8s3.592,8,8,8s8-3.592,8-8S444.408,176,440,176z"/>
	<polygon style="fill:#333333;" points="400,208 280,208 280,160 296,160 296,192 400,192  "/>
	<path style="fill:#333333;" d="M32,0v224.808C13.768,228.528,0,244.688,0,264v144c0,22.056,17.944,40,40,40h56v32H80v16h176v-16   h-16v-32h56c22.056,0,40-17.944,40-40v-56h160V0H32z M40,240h256c13.232,0,24,10.768,24,24v120H16V264   C16,250.768,26.768,240,40,240z M224,480H112v-32h112V480z M296,432h-56H96H40c-13.232,0-24-10.768-24-24v-8h304v8   C320,421.232,309.232,432,296,432z M480,336H336v-72c0-22.056-17.944-40-40-40H48V80h432V336z M480,64H48V16h432V64z"/>
	<rect x="64" y="32" style="fill:#333333;" width="16" height="16"/>
	<rect x="96" y="32" style="fill:#333333;" width="16" height="16"/>
	<rect x="200" y="96" style="fill:#333333;" width="16" height="16"/>
	<rect x="64" y="96" style="fill:#333333;" width="120" height="16"/>
	<rect x="64" y="128" style="fill:#333333;" width="152" height="16"/>
	<rect x="64" y="160" style="fill:#333333;" width="152" height="16"/>
	<rect x="200" y="192" style="fill:#333333;" width="16" height="16"/>
	<rect x="64" y="192" style="fill:#333333;" width="120" height="16"/>
	<rect x="128" y="32" style="fill:#333333;" width="16" height="16"/>
	<polygon style="fill:#333333;" points="448,144 432,144 432,112 328,112 328,96 448,96  "/>
	<rect x="328" y="128" style="fill:#333333;" width="88" height="16"/>
	<rect x="312" y="160" style="fill:#333333;" width="56" height="16"/>
	<rect x="384" y="160" style="fill:#333333;" width="16" height="16"/>
</g>
<path style="fill:#fe2911;" d="M160,368H32V256h128V368z"/>
<g>
	<rect x="176" y="256" style="fill:#333333;" width="128" height="16"/>
	<rect x="208" y="288" style="fill:#333333;" width="96" height="16"/>
	<rect x="176" y="288" style="fill:#333333;" width="16" height="16"/>
	<rect x="176" y="320" style="fill:#333333;" width="128" height="16"/>
	<rect x="288" y="352" style="fill:#333333;" width="16" height="16"/>
	<rect x="176" y="352" style="fill:#333333;" width="96" height="16"/>
</g>
<g>
</g>
<g>
</g>
<g>
</g>
<g>
</g>
<g>
</g>
<g>
</g>
<g>
</g>
<g>
</g>
<g>
</g>
<g>
</g>
<g>
</g>
<g>
</g>
<g>
</g>
<g>
</g>
<g>
</g>
</svg>
