<?xml version="1.0" encoding="iso-8859-1"?>
<!-- Generator: Adobe Illustrator 19.0.0, SVG Export Plug-In . SVG Version: 6.00 Build 0)  -->
<svg xmlns="http://www.w3.org/2000/svg" xmlns:xlink="http://www.w3.org/1999/xlink" version="1.1" id="Layer_1" x="0px" y="0px" viewBox="0 0 496 496" style="enable-background:new 0 0 496 496;" xml:space="preserve">
<g>
	<path style="fill:#333333;" d="M0,0v496h496V0H0z M480,16v48H16V16H480z M16,480V80h464v400H16z"/>
	<rect x="32" y="32" style="fill:#333333;" width="16" height="16"/>
	<rect x="64" y="32" style="fill:#333333;" width="16" height="16"/>
	<rect x="96" y="32" style="fill:#333333;" width="16" height="16"/>
</g>
<polygon style="fill:#fe2911;" points="32,96 32,320 184,320 176,232 336,248 296,288 328,320 464,320 464,96 "/>
<g>
	<path style="fill:#333333;" d="M320,451.312l-88-88l-46.28,46.28l-18.648-186.528l186.52,18.656L307.312,288l88,88L320,451.312z    M232,340.688l88,88L372.688,376l-88-88l33.72-33.72l-133.48-13.344l13.352,133.472L232,340.688z"/>
	<path style="fill:#333333;" d="M120,208c-22.056,0-40-17.944-40-40s17.944-40,40-40s40,17.944,40,40S142.056,208,120,208z M120,144   c-13.232,0-24,10.768-24,24s10.768,24,24,24s24-10.768,24-24S133.232,144,120,144z"/>
	<path style="fill:#333333;" d="M248,208c-22.056,0-40-17.944-40-40s17.944-40,40-40s40,17.944,40,40S270.056,208,248,208z M248,144   c-13.232,0-24,10.768-24,24s10.768,24,24,24s24-10.768,24-24S261.232,144,248,144z"/>
	<path style="fill:#333333;" d="M376,208c-22.056,0-40-17.944-40-40s17.944-40,40-40s40,17.944,40,40S398.056,208,376,208z M376,144   c-13.232,0-24,10.768-24,24s10.768,24,24,24s24-10.768,24-24S389.232,144,376,144z"/>
	<rect x="416" y="272" style="fill:#333333;" width="16" height="16"/>
	<rect x="336" y="272" style="fill:#333333;" width="64" height="16"/>
	<rect x="64" y="272" style="fill:#333333;" width="16" height="16"/>
	<rect x="96" y="272" style="fill:#333333;" width="64" height="16"/>
</g>
<g>
</g>
<g>
</g>
<g>
</g>
<g>
</g>
<g>
</g>
<g>
</g>
<g>
</g>
<g>
</g>
<g>
</g>
<g>
</g>
<g>
</g>
<g>
</g>
<g>
</g>
<g>
</g>
<g>
</g>
</svg>
