<?xml version="1.0" encoding="iso-8859-1"?>
<!-- Generator: Adobe Illustrator 19.0.0, SVG Export Plug-In . SVG Version: 6.00 Build 0)  -->
<svg xmlns="http://www.w3.org/2000/svg" xmlns:xlink="http://www.w3.org/1999/xlink" version="1.1" id="Layer_1" x="0px" y="0px" viewBox="0 0 496 496" style="enable-background:new 0 0 496 496;" xml:space="preserve">
<g>
	<rect x="32" y="32" style="fill:#333333;" width="16" height="16"/>
	<polygon style="fill:#333333;" points="176,320 32,320 32,96 240,96 240,224 224,224 224,112 48,112 48,304 176,304  "/>
	<rect x="64" y="32" style="fill:#333333;" width="16" height="16"/>
	<rect x="400" y="128" style="fill:#333333;" width="16" height="16"/>
	<rect x="96" y="32" style="fill:#333333;" width="16" height="16"/>
	<path style="fill:#333333;" d="M0,0v352h176v-16H16V80h416v152h16V0H0z M16,64V16h416v48H16z"/>
</g>
<path style="fill:#fe2911;" d="M496,368v-64h-36.192c-3.024-11.712-7.624-22.76-13.632-32.92l25.592-25.592l-45.256-45.256  l-25.592,25.592c-10.16-6-21.208-10.608-32.92-13.632V176h-64v36.192c-11.712,3.024-22.76,7.624-32.92,13.632l-25.592-25.592  l-45.256,45.256l25.592,25.592c-6,10.16-10.608,21.208-13.632,32.92H176v64h36.192c3.024,11.712,7.624,22.76,13.632,32.92  l-25.592,25.592l45.256,45.256l25.584-25.584c10.16,6,21.208,10.608,32.92,13.632V496h64v-36.192  c11.712-3.024,22.76-7.624,32.92-13.632l25.584,25.584l45.256-45.256l-25.592-25.592c6-10.16,10.608-21.208,13.632-32.92H496V368z"/>
<g>
	<path style="fill:#333333;" d="M336,424c-48.52,0-88-39.48-88-88s39.48-88,88-88s88,39.48,88,88S384.52,424,336,424z M336,264   c-39.704,0-72,32.304-72,72s32.296,72,72,72s72-32.304,72-72S375.704,264,336,264z"/>
	<rect x="256" y="96" style="fill:#333333;" width="160" height="16"/>
	<rect x="256" y="128" style="fill:#333333;" width="128" height="16"/>
</g>
<g>
</g>
<g>
</g>
<g>
</g>
<g>
</g>
<g>
</g>
<g>
</g>
<g>
</g>
<g>
</g>
<g>
</g>
<g>
</g>
<g>
</g>
<g>
</g>
<g>
</g>
<g>
</g>
<g>
</g>
</svg>
