<?xml version="1.0" encoding="iso-8859-1"?>
<!-- Generator: Adobe Illustrator 19.0.0, SVG Export Plug-In . SVG Version: 6.00 Build 0)  -->
<svg xmlns="http://www.w3.org/2000/svg" xmlns:xlink="http://www.w3.org/1999/xlink" version="1.1" id="Layer_1" x="0px" y="0px" viewBox="0 0 496 496" style="enable-background:new 0 0 496 496;" xml:space="preserve">
<path style="fill:#fe2911;" d="M496,496H320V320h176V496z"/>
<g>
	<rect x="352" y="352" style="fill:#333333;" width="112" height="16"/>
	<rect x="352" y="384" style="fill:#333333;" width="112" height="16"/>
	<rect x="352" y="416" style="fill:#333333;" width="112" height="16"/>
	<rect x="448" y="448" style="fill:#333333;" width="16" height="16"/>
	<rect x="352" y="448" style="fill:#333333;" width="80" height="16"/>
	<rect x="128" y="96" style="fill:#333333;" width="16" height="16"/>
	<rect x="160" y="96" style="fill:#333333;" width="16" height="16"/>
	<rect x="192" y="96" style="fill:#333333;" width="16" height="16"/>
	<path style="fill:#333333;" d="M112,64v-8c0-30.88-25.128-56-56-56S0,25.12,0,56v353.88l37.264,74.544   C40.84,491.56,48.016,496,56,496s15.16-4.44,18.736-11.576L112,409.88V400h208v-16H112V144h336v176h16V64H112z M96,400H64V128h32   V400z M96,112H16V96h80V112z M48,128v272H16V128H48z M56,16c22.056,0,40,17.944,40,40v24H16V56C16,33.944,33.944,16,56,16z    M60.424,477.264c-1.688,3.384-7.16,3.376-8.84,0L20.944,416h70.112L60.424,477.264z M112,128V80h336v48H112z"/>
</g>
<path style="fill:#fe2911;" d="M304,304H128V160h176V304z"/>
<g>
	<rect x="320" y="160" style="fill:#333333;" width="112" height="16"/>
	<rect x="320" y="192" style="fill:#333333;" width="112" height="16"/>
	<rect x="320" y="224" style="fill:#333333;" width="112" height="16"/>
	<rect x="320" y="256" style="fill:#333333;" width="112" height="16"/>
	<rect x="416" y="288" style="fill:#333333;" width="16" height="16"/>
	<rect x="320" y="288" style="fill:#333333;" width="80" height="16"/>
	<rect x="128" y="320" style="fill:#333333;" width="176" height="16"/>
	<rect x="160" y="352" style="fill:#333333;" width="144" height="16"/>
	<rect x="128" y="352" style="fill:#333333;" width="16" height="16"/>
</g>
<g>
</g>
<g>
</g>
<g>
</g>
<g>
</g>
<g>
</g>
<g>
</g>
<g>
</g>
<g>
</g>
<g>
</g>
<g>
</g>
<g>
</g>
<g>
</g>
<g>
</g>
<g>
</g>
<g>
</g>
</svg>
