<?xml version="1.0" encoding="iso-8859-1"?>
<!-- Generator: Adobe Illustrator 19.0.0, SVG Export Plug-In . SVG Version: 6.00 Build 0)  -->
<svg xmlns="http://www.w3.org/2000/svg" xmlns:xlink="http://www.w3.org/1999/xlink" version="1.1" id="Layer_1" x="0px" y="0px" viewBox="0 0 496 496" style="enable-background:new 0 0 496 496;" xml:space="preserve">
<path style="fill:#fe2911;" d="M496,368H96V0h400V368z"/>
<g>
	<path style="fill:#333333;" d="M336,384H16V216c0-4.408,3.592-8,8-8h72v-16H24c-13.232,0-24,10.768-24,24v208   c0,13.232,10.768,24,24,24h64v32H72v16h208v-16h-16v-32h64c13.232,0,24-10.768,24-24v-56h-16V384z M248,480H104v-32h144V480z    M336,424c0,4.408-3.592,8-8,8H24c-4.408,0-8-3.592-8-8v-24h320V424z"/>
	<path style="fill:#333333;" d="M296,176c-39.696,0-72,32.304-72,72v88h144v-88C368,208.304,335.696,176,296,176z M352,320h-16v-40   h-16v40h-16v-40h-16v40h-16v-40h-16v40h-16v-72c0-30.88,25.12-56,56-56s56,25.12,56,56V320z"/>
	<rect x="256" y="216" style="fill:#333333;" width="16" height="16"/>
	<rect x="320" y="216" style="fill:#333333;" width="16" height="16"/>
	<rect x="96" y="48" style="fill:#333333;" width="400" height="16"/>
	<rect x="304" y="80" style="fill:#333333;" width="176" height="16"/>
	<rect x="112" y="80" style="fill:#333333;" width="176" height="16"/>
	<rect x="464" y="112" style="fill:#333333;" width="16" height="16"/>
	<rect x="304" y="112" style="fill:#333333;" width="144" height="16"/>
	<rect x="112" y="112" style="fill:#333333;" width="176" height="16"/>
	<rect x="112" y="16" style="fill:#333333;" width="16" height="16"/>
	<rect x="144" y="16" style="fill:#333333;" width="16" height="16"/>
	<rect x="176" y="16" style="fill:#333333;" width="16" height="16"/>
</g>
<g>
</g>
<g>
</g>
<g>
</g>
<g>
</g>
<g>
</g>
<g>
</g>
<g>
</g>
<g>
</g>
<g>
</g>
<g>
</g>
<g>
</g>
<g>
</g>
<g>
</g>
<g>
</g>
<g>
</g>
</svg>
