<svg xmlns="http://www.w3.org/2000/svg" viewBox="0 0 1781.04 289.26"><defs><style>.cls-1{font-size:162.52px;font-family:AvenirLTStd-Medium, Avenir LT Std;font-weight:500;}.cls-1,.cls-5{fill:#333;}.cls-2{letter-spacing:-0.02em;}.cls-3{font-size:108.35px;font-family:AvenirLTStd-Roman, Avenir LT Std;}.cls-3,.cls-4{fill:#fe2911;}</style></defs><title>sitecore-hackathon</title><g id="Calque_2" data-name="Calque 2"><g id="Calque_1-2" data-name="Calque 1"><text class="cls-1" transform="translate(0 146.97)">Siteco<tspan class="cls-2" x="454.73" y="0">r</tspan><tspan x="511.93" y="0">e Hackathon</tspan></text><text class="cls-3" transform="translate(0.1 262.17)">Hack the experience</text><path class="cls-4" d="M1754.17,197.1H1503.31V0h250.86Z"/><path class="cls-5" d="M1758.64,62.71h-4.47v9h4.47a13.46,13.46,0,0,1,13.44,13.44V215H1530.19V197.1h-9v31.36a22.42,22.42,0,0,0,22.39,22.4h44.8v17.91H1570.5v9h161.27v-9h-17.92V250.86h44.79a22.43,22.43,0,0,0,22.4-22.4V85.11A22.43,22.43,0,0,0,1758.64,62.71Zm-53.75,206.06H1597.38V250.86h107.51Zm53.75-26.87h-215a13.45,13.45,0,0,1-13.43-13.44V224h241.89v4.48A13.46,13.46,0,0,1,1758.64,241.9Z"/><rect class="cls-5" x="1512.27" y="8.96" width="8.96" height="8.96"/><rect class="cls-5" x="1530.19" y="8.96" width="8.96" height="8.96"/><rect class="cls-5" x="1548.1" y="8.96" width="8.96" height="8.96"/><rect class="cls-5" x="1503.31" y="26.88" width="250.86" height="8.96"/><path class="cls-5" d="M1629.62,42.5a71.66,71.66,0,1,0,71.65,71.66A71.74,71.74,0,0,0,1629.62,42.5Zm0,18.7a53,53,0,1,1-53,53A53,53,0,0,1,1629.62,61.2Zm28.8,16.23-20.35,14.16,1.33,2.27a25,25,0,0,1,2.68,11c.1,5.15,0,28-34.27,28-9.35,0-21.81-3.12-21.81-3.12s9.35,9.35,34.27,9.35c33.78,0,34.27-35.86,34.27-37.39v-3.1h19.1A46.94,46.94,0,0,0,1658.42,77.43Zm2.16,27.38c-1,10-6.65,40.5-40.31,40.5A98.09,98.09,0,0,1,1592.6,141c5.44,4.27,16.38,10.52,33.9,10.52,22.85,0,34.57-20,34.69-20.24l1.65-2.89,8.87,5.91a45.37,45.37,0,0,0,3.63-29.51Zm4.18,32.37c-4.47,6.22-17.1,20.59-38.26,20.59a69,69,0,0,1-19.21-2.6,46.23,46.23,0,0,0,22.33,5.72,46.74,46.74,0,0,0,39-21.11Z"/></g></g></svg>