<?xml version="1.0" encoding="utf-8"?>
<!-- Generator: Adobe Illustrator 24.0.2, SVG Export Plug-In . SVG Version: 6.00 Build 0)  -->
<svg version="1.1" id="Calque_1" xmlns="http://www.w3.org/2000/svg" xmlns:xlink="http://www.w3.org/1999/xlink" x="0px" y="0px"
	 viewBox="0 0 50 50" style="enable-background:new 0 0 50 50;" xml:space="preserve">
<style type="text/css">
	.st0{fill:#FE2911;}
</style>
<path class="st0" d="M25,2C12.3,2,2,12.3,2,25s10.3,23,23,23s23-10.3,23-23S37.7,2,25,2z M25,8c9.4,0,17,7.6,17,17s-7.6,17-17,17
	S8,34.4,8,25S15.6,8,25,8z M34.2,13.2l-6.5,4.5l0.4,0.7c0,0,0.8,1.4,0.9,3.5c0,1.7,0,9-11,9c-3,0-7-1-7-1s3,3,11,3
	c10.8,0,11-11.5,11-12l0-1l6.1,0C38.2,17.3,36.5,15,34.2,13.2z M34.9,22c-0.3,3.2-2.1,13-12.9,13c-3.4,0-6.5-0.7-8.9-1.4
	C14.9,35,18.4,37,24,37c7.3,0,11.1-6.4,11.1-6.5l0.5-0.9l2.8,1.9c1-2,1.5-4.2,1.5-6.5c0-1-0.1-2-0.3-3C39.7,22,34.9,22,34.9,22z
	 M36.3,32.4c-1.4,2-5.5,6.6-12.3,6.6c-2.4,0-4.4-0.3-6.2-0.8C20,39.4,22.5,40,25,40c5.2,0,9.8-2.7,12.5-6.8L36.3,32.4z"/>
</svg>
