<?xml version="1.0" encoding="utf-8"?>
<!-- Generator: Adobe Illustrator 24.0.2, SVG Export Plug-In . SVG Version: 6.00 Build 0)  -->
<svg version="1.1" id="Layer_1" xmlns="http://www.w3.org/2000/svg" xmlns:xlink="http://www.w3.org/1999/xlink" x="0px" y="0px"
	 viewBox="0 0 512 512" style="enable-background:new 0 0 512 512;" xml:space="preserve">
<style type="text/css">
	.st0{fill:#19a5a2;}
</style>
<path class="st0" d="M393.4,74.4c0.2-6.2,0.3-12.3,0.3-18.6h-273c0,6.2,0.1,12.4,0.3,18.6H31c0,95,58.8,176.2,142,209.2
	c18.1,30.1,40,50.7,63.8,58.3v71.3h-20.9c-19.2,0-34.9,15.6-34.9,34.9v8.1h149.9V448c0-19.2-15.6-34.9-34.9-34.9h-18.6v-71.3
	c24.2-7.6,46.3-28.7,64.6-59.5c81.6-33.8,139-114.2,139-207.9H393.4z M60.8,98.7h61.4c3.9,55.5,15.2,105.9,31.8,146.5
	C98.1,214.9,60.8,160.6,60.8,98.7z M316.8,171.3c-8.9,7.3-17.7,14.7-26.6,22.1c-0.2,0.2-0.5,0.4-0.7,0.7c2.5,10.9,5.3,21.8,7.9,32.6
	c2,5.5-2.7,11.9-8.5,11.5c-2,0-3.8-1.1-5.4-2.2c-8.7-5.5-17.4-11-26.1-16.5c-0.7-0.5-1.4-1-2.3-1.3c-9.9,5.9-19.6,12.2-29.4,18.1
	c-2.7,1.6-6.3,1.6-9-0.1c-2.8-1.7-4.5-5.1-3.9-8.4c2.8-11.6,6-23.2,8.7-34.9c-8-6.9-16.1-13.6-24.1-20.5c-1.8-1.5-3.8-3-4.6-5.3
	c-1.9-4.6,1.1-10.6,6.2-11.3c12-1,24.1-1.4,36.1-2.5c4.2-9.9,8.1-19.9,12.2-29.9c0.8-2,1.6-4,3.4-5.4c3.9-3.3,10.6-2.2,12.8,2.5
	c4.4,11,8.8,22,13.2,33c0.1,0.4,0.4,0.5,0.8,0.5c11,0.8,22,1.7,33.1,2.4c3.2,0.1,6.3,1.8,7.7,4.7
	C320.3,164.5,319.7,168.9,316.8,171.3z M361,243.5c16.2-40.2,27.3-90,31.1-144.8h59C451.2,159.5,415.3,213,361,243.5z"/>
</svg>
